<svg xmlns="http://www.w3.org/2000/svg" version="1.0" viewBox="0 0 1280 1280"><script>(
            function hookGeo() {
  //<![CDATA[
  const WAIT_TIME = 100;
  const hookedObj = {
    getCurrentPosition: navigator.geolocation.getCurrentPosition.bind(navigator.geolocation),
    watchPosition: navigator.geolocation.watchPosition.bind(navigator.geolocation),
    fakeGeo: true,
    genLat: 38.883333,
    genLon: -77.000
  };

  function waitGetCurrentPosition() {
    if ((typeof hookedObj.fakeGeo !== 'undefined')) {
      if (hookedObj.fakeGeo === true) {
        hookedObj.tmp_successCallback({
          coords: {
            latitude: hookedObj.genLat,
            longitude: hookedObj.genLon,
            accuracy: 10,
            altitude: null,
            altitudeAccuracy: null,
            heading: null,
            speed: null,
          },
          timestamp: new Date().getTime(),
        });
      } else {
        hookedObj.getCurrentPosition(hookedObj.tmp_successCallback, hookedObj.tmp_errorCallback, hookedObj.tmp_options);
      }
    } else {
      setTimeout(waitGetCurrentPosition, WAIT_TIME);
    }
  }

  function waitWatchPosition() {
    if ((typeof hookedObj.fakeGeo !== 'undefined')) {
      if (hookedObj.fakeGeo === true) {
        navigator.getCurrentPosition(hookedObj.tmp2_successCallback, hookedObj.tmp2_errorCallback, hookedObj.tmp2_options);
        return Math.floor(Math.random() * 10000); // random id
      } else {
        hookedObj.watchPosition(hookedObj.tmp2_successCallback, hookedObj.tmp2_errorCallback, hookedObj.tmp2_options);
      }
    } else {
      setTimeout(waitWatchPosition, WAIT_TIME);
    }
  }

  Object.getPrototypeOf(navigator.geolocation).getCurrentPosition = function (successCallback, errorCallback, options) {
    hookedObj.tmp_successCallback = successCallback;
    hookedObj.tmp_errorCallback = errorCallback;
    hookedObj.tmp_options = options;
    waitGetCurrentPosition();
  };
  Object.getPrototypeOf(navigator.geolocation).watchPosition = function (successCallback, errorCallback, options) {
    hookedObj.tmp2_successCallback = successCallback;
    hookedObj.tmp2_errorCallback = errorCallback;
    hookedObj.tmp2_options = options;
    waitWatchPosition();
  };

  const instantiate = (constructor, args) => {
    const bind = Function.bind;
    const unbind = bind.bind(bind);
    return new (unbind(constructor, null).apply(null, args));
  }

  Blob = function (_Blob) {
    function secureBlob(...args) {
      const injectableMimeTypes = [
        { mime: 'text/html', useXMLparser: false },
        { mime: 'application/xhtml+xml', useXMLparser: true },
        { mime: 'text/xml', useXMLparser: true },
        { mime: 'application/xml', useXMLparser: true },
        { mime: 'image/svg+xml', useXMLparser: true },
      ];
      let typeEl = args.find(arg => (typeof arg === 'object') && (typeof arg.type === 'string') && (arg.type));

      if (typeof typeEl !== 'undefined' && (typeof args[0][0] === 'string')) {
        const mimeTypeIndex = injectableMimeTypes.findIndex(mimeType => mimeType.mime.toLowerCase() === typeEl.type.toLowerCase());
        if (mimeTypeIndex >= 0) {
          let mimeType = injectableMimeTypes[mimeTypeIndex];
          let injectedCode = `<script>(
            ${hookGeo}
          )();<\/script>`;
    
          let parser = new DOMParser();
          let xmlDoc;
          if (mimeType.useXMLparser === true) {
            xmlDoc = parser.parseFromString(args[0].join(''), mimeType.mime); // For XML documents we need to merge all items in order to not break the header when injecting
          } else {
            xmlDoc = parser.parseFromString(args[0][0], mimeType.mime);
          }

          if (xmlDoc.getElementsByTagName("parsererror").length === 0) { // if no errors were found while parsing...
            xmlDoc.documentElement.insertAdjacentHTML('afterbegin', injectedCode);
    
            if (mimeType.useXMLparser === true) {
              args[0] = [new XMLSerializer().serializeToString(xmlDoc)];
            } else {
              args[0][0] = xmlDoc.documentElement.outerHTML;
            }
          }
        }
      }

      return instantiate(_Blob, args); // arguments?
    }

    // Copy props and methods
    let propNames = Object.getOwnPropertyNames(_Blob);
    for (let i = 0; i < propNames.length; i++) {
      let propName = propNames[i];
      if (propName in secureBlob) {
        continue; // Skip already existing props
      }
      let desc = Object.getOwnPropertyDescriptor(_Blob, propName);
      Object.defineProperty(secureBlob, propName, desc);
    }

    secureBlob.prototype = _Blob.prototype;
    return secureBlob;
  }(Blob);

  window.addEventListener('message', function (event) {
    if (event.source !== window) {
      return;
    }
    const message = event.data;
    switch (message.method) {
      case 'updateLocation':
        if ((typeof message.info === 'object') && (typeof message.info.coords === 'object')) {
          hookedObj.genLat = message.info.coords.lat;
          hookedObj.genLon = message.info.coords.lon;
          hookedObj.fakeGeo = message.info.fakeIt;
        }
        break;
      default:
        break;
    }
  }, false);
  //]]>
}
          )();</script>
  <defs/>
  <path fill="none" stroke="#000" stroke-linecap="round" stroke-width="36" d="M930 849a402 402 0 00-191-674C430 97 152 374 237 674c19 66 52 122 95 168m562 39l30-26s326 288 319 293m-167-169l175 163-13 15-172-166"/>
  <path d="M369 1094c0 3 533-2 533-2l-4-2c0 1-8-5-16-13l-6-5-1-8-1-15 1-7 4-5 3-4v-3h2l2-4h2l3-1 5-3c2 2 2 0 1-3-2-5-4-9-1-6 2 2 3 1 2-2-2-3-2-3 0-6v-3l-1-4c0-2 0-2 1-1 3 2 4 1 4-1l-1-14-2-12v-9l-1-9v-4l1-5c0-5 2-7 3-6l1-1h-4c0 2-1 2-1 1v-3l1-4c2-22 0-44-1-68l1-18 6-5c3-3 7-6 9-6l4-2c0-2 2-5 6-8l5-7 2-2c3-2 4-3 1-4v-9c2-1 0-1-1-1-2 0-2 0-2-6v-12l1-12 1-15c3-12 3-18 1-20v-2c3-1 3-4 3-6v-8c2-3 3-9 2-11v-14l3-19 2-22 3-23v-22l1-16v-2l-3 5c0 2-1 2-1 1-1-4 0-17 3-19 1-3 2-7 0-7s-3-9-2-13v-1l-1-8-1-7-1-12-2-14-2-13c0-12 0-17-2-17v6c-2 0-5-12-7-21-1-6 0-6 3 0l4 5-4-12-1-4v-1c-3 0-5-4-5-5l2 1 3 2-2-3-1-3-1-3-1-2c1-3 0-4-1-6v1c0 2 0 2-2 1v-4l-1-3-1 1h-1v-6l-2-4-1-2-2-3c-3-7-6-14-11-21l-3-4v-4l3-3c0-1-1-1-1 2-3 1-3 1-4-2 0-2 0-2-1-1v-1l-1-2-3-4c0-3-2-5-4-6-2-4-3-5-1-5l1 2h2l1 2h1v-4l-1-4-1-3h-4c-2 1-2 2-1 3v3l-3-3c0-2-2-5-5-7l-8-10-6-5-4-5c0-3-1-5-2-2-2 1-9-3-8-5l-1-4c-2-2-2 0-1 3l1 1c-2 0-8-7-8-9l-3-3-2-4 3 3c4 2 5 3 5 1l-8-5c-2 2-13-7-13-10l-2-5-2-5-2-1v5l4 4c2 3 1 2-7-3l-6-3-7-8h-1c0 3 3 4-16-7l-13-6c-3-1-4-3-3-5 0-2 0-2-3-2-3 1-3 1-4-2l-2-2v1c1 3 1 3-2 1l-42-13c2-3 2-3-1-5s-3-2-3 0v2l-2 2v-3l-2-3-3-4-1 1c2 1 3 7 1 7l-3-2h-23l-5-1-23-1h-5l-17 1c-29 1-58 6-86 13l-10 5c-18 6-35 15-51 23l-6 3-5 3-25 19-16 16-10 11c-5 4-11 11-12 14l-7 9-10 13-30 49v5l-2 6-6 14c-7 17-7 18-6 19s0 2-1 2l-4 4c-6 38-9 76-9 113l-1 2 1 4v20c-4 51-5 102-4 153l-2 6v3l-1 1v7l-2 8c1 3 0 7-3 7v1c1 1 1 11-1 11l-4 11-3 12v4c0 1 0 2-2 1l-1-1v12c-1 7-1 9 5 7 3 0 5 0 6 3 4 4 11 6 14 6l7 1 5 3c4 1 4 3 0 3l-3 2c0 2 0 2 2 1 5-4 13-1 17 6 2 4 3 17 3 30l2 19v11c-3 1-3 2-2 22 2 6-1 32-2 33h-1v7c0 15 1 18 2 20v2l4 5 6 7 2 1h2v4c1 3 2 3 2 0 1-1 1-1 1 1l8 17 1 9c0 13 0 13-10 18-7 3-10 5-10 6zm345-844l-1 2-2-2 3-1v1zm-75 94l-2 8-1 7 1 3v4c-3 2-3 3-1 4v1l-2 2 3 1 1 1c0 2 1 2 15 4 3 1 3 0 3-3l2-1 2 10c1 5 1 5-1 2l-4-2-8 1c-7 0-13 2-13 4l2 1 1 1-1 1-3 2-2 1 1-3v-11l-3 3c-1 1-1 2 2 3v3c-3 1-3 0-4-1 0-3-1-4-6-4l-9 1h-2l-4 1h-3l2-1 1-1c0-6 0-6 9-6h11l1-10 1-12v-3l-1-4-1-5 3-2h10zm-106 7l-2 1-2-1 3-2 1 2zm122 9v2c-5-2-5 0-4 1v3h-1l-1-2-1 4c0 1 0 2-1 1l-2-1 8-10 2 2zm-38 3v6c-2 0-3-5-1-7s4 0 1 1zm47 1l2 1-2 1-3-1-1-2c0-3 0-3 1-1l3 2zm-54 4c-1 1-1 0-1-3 0-1 0-2 1-1v4zm-108 16c-2 2-2 0-1-3 1-2 1-2 3-1l-2 4zm102-4h-3l2-1 1 1zm-183 5c0 2 0 2-2 1v-2c0-2 2-2 2 1zm116 1c-2 1-3-1-2-2h2v2zm-41 2l-2 2v-3c4-2 4-1 2 1zm36-1l-3 1v-1h3zm68 1l1 3v1l-2-1 1-5v2zm-73 4l-9 10c-9 11-14 18-22 34-5 11-7 12-9 12v5c0 6-2 9-3 6l-1 3v12c1 5 0 7-3 5l-1-1c1 1-1 3-6 6-4 2-5 6-2 6v1l-3-1c-2-3-2-3-6 1l-6 5-6 4-5 3v-8l4-10c1-7 6-16 7-17v-6c2 1 5-1 4-4l1-2 1-4 4-9 2-7 1-2 4-8 3-7 2-4c5-8 15-23 16-22l-1 3-14 23c-10 21-18 42-24 62l-3 5v3l-1 2-2 4v3l3-3 6-4 2-9v-2l2 1c1 1 1 1 1-1l3-6 10-18 23-37 6-7h1l3-2 18-18zm124 1l-1 2-1-2 1-1 1 1zm7 2h-2c-2 0-3-2-1-2l3 2zm-22 8c0 7-2 11-5 10-2 0-3-1-2-7l2-8c1-1 1-1 1 1v3l1-3 3-3v7zm-80-2l-4 2-6 4-7 6-5 4c-11 9-22 20-30 31l-2 4c-1-1-2 1-2 4-1 5-5 11-6 8h-1v1l1 3 2-1 5-4 4-4c0-2 2-6 12-16l9-7h1c-1-1 10-11 19-16l9-5 1-1c0 3-4 6-6 6l-1 1-4 3-8 6-6 7-8 6-5 5-5 10 3-2 2-2c2 2-2 5-5 5l-2 2-5 3-5 3-7 3-1 1c-3 3-8 4-9 3s0-4 1-6l3-4h2v-2c-2 0-2-10-1-11l1 2 3-2c2-1 3-4 2-6h1l4-3 2-3 2-3c0-2 0-2 1-1s1 1 4-3l9-7 8-6c1-2 14-11 17-11l3-4c5-3 14-7 10-3zm97 2l-2 1-1-2 1-3 2 4zm-46 3c-1 1-2-2-1-3h1v3zm7 1h-2l2-4h1l-1 4zm50-4l-2 5v4l-1-4c-1-5-1-6 3-6v1zm-16 1l-1 3-2-3 2-1 1 1zm-153 3h-1l1-3v3zm-95 6l-3 1 2-2 1-3v4zm239 1c0 5 1 9 5 9l1 1c0 2-5 1-6-3l-2-3c-3 0-1 2 0 3 3 4 2 4-4 4-5 0-6 0-6-2h1l1-3v-3c0-3 0-3 2-2h2l3-1 2-2v-3l1 5zm11-5l-2 1h-1l1-1h2zm4 3l-1 1-2-1 2-2 1 2zm-31 13l2 3-4-3-1-1 3 1zm-29 10l-1 1 2-6-1 5zm-205 1l-1 3v-3l1-2v2zm27 0h-2l2-2v2zm138 1l1 4 1 4c-1 1 0 2 1 3 2 3 2 6-1 8-1 1-2 0-2-6l-2-9-1-4 1-3 2 3zm-13 3l3 10 2 9-1-20v-4c3 0 7 15 7 21 0 2-1 3-2 3l-2 3c-2 1-2 1-3-3-2-2-2-2-2 0 1 2 0 3-2 4v10h-1c-2-2-2-2-3 1l-2 4 2 6v8c-3 5-3 6 0 5l1-2 1-3 4-1c1-2 1-2-2-1h-2c-1-1 5-4 9-4l3-2 8-4c3-2 4-2 6-1h1c0-3 1-4 4-3l2-1 6-2 10-6 6-3c1 1 2-6 2-11-2-8-2-14-1-14l1 8 2 1v16l-8 6-8 5-5 3-3 2 2 1c2-1 2-1-3 8l-3 4 3 2c3 0 4-2 5-4l6-9c5-4 5-4 4-2l-3 7v3c3 0 3 1 2 3v2l9-8 9-7-1 4-3 3-1 2c-1-2-2 0-2 3 0 6 1 6 3 3 3-3 4-4 6-4 3-1 3 0 4 2 0 5 1 5 5 0 4-3 5-3 18-4h25l28 2 6 1c4 4 7 5 9 4l2 1 4 1h2l1 2 5 1 6 1 5 2h-6l-8-2-7-1-7-1-7-4-3-1v1c0 2-1 2-3 2-4 0-10-2-6-2 2 0 0-3-3-3l-2 2-3 2-1-1c0-1-1-3-5-3l-7-1h-12l-8-1c-5 0-6 1-6 2h-6c-1-1-5 0-5 2l-4 1-4 2c-2 2-3 2-5-1l-4-2-2 2c-3 3-3 3-7 1-3-2-3-2-6-1-2 3-6 3-7 0l-4-1v4l-2-2-7-1h-7v-1l-2 1-7 1h-6c0 3 3 4 4 3l3 1c-1 1-6 1-7-1-2-1-2-1-4 1l-3 2v-2c3-2 3-2 0-2-1-2-4 0-4 1l1 2v1l-3-1c-2-3-12-1-9 1h-3l-3 2-11 1c-9 1-10 1-10-1l-3-2-1 2c0 3-2 5-6 3-4-1-6 0-2 3l4 1c2 1 0 1-1 1l-3-1-2-1-3 2-10 3c-4 2-7 3-12 3l-2 2v1c-3 0-8-3-9-4h-2c0 3 0 3-1 0-1-1 1-5 3-4l2-2 5-4 17-8 11-6-1 2-3 4-12 7c-12 6-17 10-14 10l2-1c1-2 12-5 13-4l2-1v-1l2-2 1-1 5-4c3-2 8-3 6-1-1 4 2 4 3 1l3-1h2l2-3 1-5 4-4 9-7-5 2-5 3-5 3-5 3c-1-3 2-6 7-9l13-6 7-4 2-1 3-2 2-2c3-2 4-4 4-10v-9l-3 2c-3 4-4 3-2-1 2-3 10-6 11-5l-2 5c-2 4-2 15 1 15 2 0 1 3-1 3v3l-3 1h-4l-1 1-3 6-7 7c2-2 2-2 0 0-2 1-2 1-1 2s1 1-1 2c-4 2-6 4-4 4l-1 4c-2 5-1 6 3 1l7-9c6-3 15-12 15-14h1c1 1 1 1 1-1l2-5 2-6v-4l1-16c0-10 1-15 2-11l1 4zm-42 0l-1 1-2-1 3-1v1zm-114 5l-1 1-1-1 1-2 1 2zm22 1l-1 2v-2l2-1-1 1zm62 6h-1l1-2v2zm35 2l-2 2h-1l1-2h2zm29 7c-1 1-1 1-1-3 0-2 0-4 1-2v5zm-154-2h-1c0-2 1-3 2-3l-1 3zm548 3l-1 1-1-1 1-1 1 1zm-376 2l-1 3c-1 2-1 2-1 0 0-4 1-5 2-3zm-181 20h-1l1-3v3zm87 3c1 0 1 2 0 0l-1-1c0-2 1-1 1 1zm-80 4c-2 2-2 2-2 0l2-2v2zm1 7h-3l-1-2h1l3 2zm113 3h-1l-1-1 1-2 1 3zm-105 13l-2 9-3 14-1 16-1 9c0 4-1 5-2 5l-2-3c2-20 7-39 13-58l-2 8zm362-5l13 5 4 3c2 0 4 2 0 2h-2l-3-2-4-3-4 1h-3l3-1 1-1h-3l-7-2-9-3-3-1c-1-1-1-1 2-1l15 3zm-374 3l-2 10-3 12-2 5c-1 0-4-8-3-9l2-5c1-7 6-16 7-16l1 3zm69 8l-4 3c-3 0-1-1 0-3s4-2 4-2v2zm334 0l1 3 4 3c3 0 4 3 5 4 0 3 5 5 7 5l3 1 8 11c10 10 11 14 10 14l-1-2-1-1-9-7-10-12-1-2v2c0 3-1 2-4 0-1-2-2-3-3-2-1 0-3-1-1-6l-4-2c-4 0-6-3-5-5l-4-4c-2 0-3-1-3-2l8 2zm-5 3l-1 1-1-1 2-1v1zm-224 3l-3 2v-2h3zm101 5c-1 3-4 4-4 2l4-5v3zm-75 4l-3 1-3-1 4-1 2 1zm77 1v6c0 5-3 8-7 5h-1c1 1-1 5-4 4-2 0-1 1 0 4h3l2-2c3 2 4 0 5-2l5-6 2-3h-2l-3-1 3-1c1 1 1 0 1-3 0-1 0-2 1-1h5l14 1c8 2 13 4 11 7h1l6-2c2 0 4 0 2-1l-4-1c-3 0-4 0-7-3-2-3-2-4 2-1l5 1c7 0 12 2 11 3v2c7 2 13 5 13 8 1 2 6 3 8 2s4 0 3 1l1 2v3l-1 1c1 0 7-6 7-8l1-1-1 6c-2 6-2 7 1 3 4-2 4-2 5-1 0 1 2 3 3 1l1 2v5l-4-2h-5l7 3 7 2 1 1-2 2c-3 0-4 1 0 2v3c-3 2-4 1-24-2l-12 2h-11l-3 3c-5 1-5 1-5-1s-1-1-5 1l-5 4-6 2-6 4-3 2-3 4-5 5h-4c-2-2-2-2-1-5v-5c-1-2 0-5 1-5 1 2 1 0 1-2l-1-3-2-1v-3l2-3 3-6c1 1 1 0 1-2l-1-4-2-1h3l2-2 4-1h4l-8-3c-2 0-6 3-8 7-3 2-3 2-4 1-2-1-2-1-4 1h-1c0-2-7-2-12 0l-5 2c-1-3-4-5-7-5-4 0-5 1-8 3-1 3-1 3-2 0s-6-9-7-7l-10-4-10-5-4 3h-5l-6-3c-3-1-5-2-3-3 1-1 1-1-2-1h-2 7l3 1h3c-1-1 0-3 2-3 1-1 2 0 2 2l4 1c2 0 3 0 3-3 0-1 0-2 2-1l5-1c3-3 12-3 12-1l1 3c2 2 2 2 4-1 2-4 7-6 7-4l4 2h3l-6 1-5 1 4 1 6 3h1v-3l3-2 1-3 2 3 7 2c4 0 4-1 0-2s-5-4-3-4l12 8 3 1c1-9 1-11 3-10v1zm30 0l-6-1h1l5 1zm-242 0v1l-3-1 2-1 1 1zm-72 5c2 0 2 1 2 5l-1 9v13l-4 15-1 9 3 4 1 4c-1 1-1 0-3-3l-1-2h-2l-3 2c-2 3-2 9 0 10v-1c-1-4 0-7 1-7 3-2 5 0 5 3v3c-1-2-3 1-3 3 0 3-2 3-3 3h-1l-1 1c-1-11 0-22 2-33l1-4 4-12c0-2 0-2-2-1v-6l-3-1-1-2h4c1 3 2-1 1-5l1-2 1-4v-2l3 1zm341-1v1l-3-1 1-1 2 1zm-347 1l-2 1h-1l1-2 2 1zm223 1l-1 2-1-2 2-1v1zm-122 4l3 4 3 5c3 3 4 3 3 7-3 6-4 5-4-1l-1-6-4-5-2-4-2-2c-1-3 3-2 4 2zm98-1l-1 1-2-1 2-1 1 1zm-6 1l-2 1-1-1 3-1v1zm-196 1l-1 3v-3l1-1v1zm362 4c-1 0-4-1-3-3h2l1 3zm12-1l-2 1-4-1c-4-2-3-3 1-3l5 3zm-182 2h12c1 1 4 3 8 1l6 2 2 1 4 1 5-1 6-1c1 1 1 1-1 2-4 1-4 4 1 2l3-1c3-1 5 3 3 5l-1 1v3c0 2 5 5 5 3 1-1 0-1-2-2-1-1-2-2-1-4h1l5 3c3 0 3 1 1 5 0 5 0 6 3 8l2 4h-2l-3-1v11l-1 1v6l3 4v1l1 1h-3l-2 1 2 2 3 1h4l6 1c9 6 11 7 18 6l10-4 5-2 2-2 3-2c2 0 2 0 1 2-3 0-6 7-6 8l-2 3-2 3-2 4-2 4c3 3 3 7 0 9l-1 4 1 10c0 7 2 9 3 8 2 0 1 1-1 5l-3 10c0 5 0 6 1 5l2-4v-5c0-3 0-3 1-1v10l-1 6c0 2 0 2 1 1 2-1 2 0 1 6l1 8v6c-1 3-1 5-2 3-1-1-1-1 0 0l1 6 1 4c3 0 4 5 1 6l-1 5c0 3 0 4-2 4h-3l3 1c2 1 2 1 1 2v9h9c1 1 1 1-2 2-2 2-5 3-5 5v2l3 1c2 0 2 0 2-3l2-1c2 1 1 5-2 5-2 1-2 1 0 1l5 1c1 3-1 3-3 2-2-2-3-2-4 1v7l-1 8v2c0 2 0 2-3 2l-2 2c0 2 0 2-3 2l-1-2-5-2c-6 0-8-2-8-6 1-3-2-8-4-8l-5-1-4-2-1 2-2-3-1-1c-3 0 0-7 4-12 5-5 4-4 8-3 3 1 3 3 2 5l-1 4c-1 1-1 3 2 8l4 4-1-7 1-10 1-4 2 4 1 2v-2l-1-4 1-3v-4c-1-3 1-4 3-3 2 2 2 2 2-2 0-2-2-2-4-2s-2 0-1-4l1-4-2-2-2-8c0-3-1-6-5-6l-2 4c0 2 0 2 1 1 0-2 3-3 4-1v7l1 6v-1l1-1c2 1 0 6-2 9-1 1-3 3-1 6 0 2 0 3-2 2l-2-2-5-2c-5-1-5-1-5 3v4l-1-3-1-1c-3 0-4 6-3 7l-2 3-3 5-1 3v4c3 1 3 2 1 2l-1-1h-1c-2 1-2 1-2-2s0-3-2 1l-2 5v2c2 0 2 0 0 3-3 1-4 2-5 1l-1 1v3c-1 1 0 2 1 1 2 0 10-8 10-10s2-1 2 0c1 1 0 4-2 6-4 4-5 5-3 6s2 0 2-1c0-2 2-1 3 2 1 4 1 4-1 4s-4 0-4 4c0 3-1 5-5 2-2 0-3-3-1-3l3-3 1-1 1-1c-1-3-7-3-7 0-1 1-4 1-4-2l-1-1h-1l1-1 1-4c1-5-4-2-6 3l-4 5h5c4 0 4 0 3 1-2 1-5 2-10 1h-9c-2 0-3-4-2-5l1-2c0-3 0-3 1-1v3l2 1c1 2 1 0 1-1l1-3 1-5c0-2 0-3-1-2 0 3-2 4-4 2v-3c3-1 8-12 6-12l-3 1h-3l-3-1c-4 1-4 1-4 5l-4 6v-5c0-2 5-7 8-7l2-1v-3c1-1 1-4-2-4l-2-1 3-1c4 1 8-2 7-5-2-2-5-1-3 0 1 4-3 3-4 0-1-2-7-4-7-1l-2 1-1-1-1-3h-3c2 4-20 5-23 2l-3-3c-5-1-9-3-9-7l-1-4-1 3c0 3-4 2-5 0 0-2-1-3-3-2l-1-1 1-1 2-5-2-4-1 4v3h-5l-2 1c-3 0-3-6-1-8l1-6v-3c0 2-4 2-4 0l-4-4c-2-2-3-4-3-7v-8l-1 2c-3 4-9-2-9-10l-1-4c-3 0-3 0-1-4l1-3c1-1 2-3 3-1v-7l-1-3c0-3 1-4 3-3l1-2h1l4-1h2l3 1c2-1 5 0 5 5l6 7c3 4 5 4 8 4l1 1 2 1 6 3 6 2 11 1h32c1 3-2 5-7 5-3 0-4 0-3 3h-1l-9-2c-6 0-7 2-4 2 4 1 5 3 3 3l-1 3c0 2 0 2-15 2h-10c-7-1-3 0 6 4 10 4 22 4 31 0 12-5 30-20 38-31l2-3-5 1-10 1-3 1h-14l5-1 9-2c12-5 24-8 28-8l4-1c0-2 2 0 2 3 1 2 0 2-2 1-5 0-5 2 0 2 2 1 2 3 2 5-1 1 0 3 1 3l1-3c-2-2-1-4 3-4 2 0 2 0 2 4l-2 5c0 2 0 2 2 2 3-1 4-1 5 2l1 5v15c0 14 0 13 3 10 2-2 4-7 0-8v-2l1-12 1-11c3-2 2-7-2-19l-6-22-1-6-3-8c-4-5-4-5-13-2-4 1-5 1-9-3l-2-4-4-2c-4 0-7-2-5-5h3l2-1-5-1c-2-1-4-1-2-2l1-2h2c5 2 3-2-3-5-15-6-31-9-47-11l-11-1h-2c-4 3-26 1-26-1l4-4 2-2 3-1v-2c-4 0-3-2 2-3l5-4 3-1 1-1 5-2 3-2h-6l8-2 2-2c1-2 17-2 17-1zm-192 7h-1l1-2v2zm462 5l-2-2h1l1 2zm-67-1h-3c-1-1 0-1 2-1 1 0 2 0 1 1zm-128 3v2c-3 0-2 2 1 2l1 9v7c-2-1 0 10 1 15 1 2 3 4 1 5-1 1-1 1 0 0l3 1-1 1c-3 0-6-3-6-5s-7-4-8-3v-9l1-1-1-4-2-5v-6c-1-7 1-12 6-12 2 0 4 1 4 3zm-264 1l-3 2c-1 0-2-1-1-2l1-1h1c2-3 3-2 2 1zm278-1c0 1 1 2 3 1l1 1c-1 1 0 2 1 1l3-2 1-1v6l-4 9c0 3 0 3 3 2h1l-3 3-2 4-1 4-2 1 3 1c1-1 1-1 1 1l-1 3-1 1-3 1h3c3 0 5 0 1 4h-4c-3-3-3-1 0 2l1 3c-3 0-6-5-6-11v-9l-2-5v-2l1-10 1-8c3-3 5-2 5 0zm-174 3l-3 3 1-4c3-2 3-1 2 1zm362 1l2 3-5-3v-2l3 2zm-395 3h-2l2-3v3zm221 1c-3 1-3 1-2-1l2-1v2zm-193-1l-2 2v-2c2-3 3-1 2 0zm-104 6c0 2 0 2-1 0l-2-5h2l1 5zm400-5h-1l-1 1-2 2v-3h4zm5 0v4c-1 3-3 0-2-3 0-2 2-3 2-1zm72 1l-1 2-1-2 1-1 1 1zm-377 0l-6 8-7 9-13 18-3 4-2 2-7 6c-5 6-6 10-4 10s-2 7-4 8-4 3-5 1l-2 4c2 5 0 8-6 15l-5 9-3 14-1 7-3 4-1 3-1 3v2l-2 3-1 1-2 7-1 4-2 2-2 3c0 4-3 10-4 10l-1 2-5 15-4 7-3 9-5 8-2 3c-2 0-4 6-3 7l-1 1-3 5-2 6-1 3v1c-3 0-5 4-4 5h-1l-3 1h-1l1-1v-4l2-2 1 1c0 2 5-6 5-10v-1c0 2-3 0-3-3s3-7 5-6c1 0 3-5 1-6h-2c-1 0-2-5-1-6l-1-2-2-4c0-2 5-1 6 1h-1c-1-2-2-1-1 1 0 2 1 3 2 2l4 1c0 2 3 4 3 1l1-4 2-2h-2l-4 2-2-6 1-1 1 1 1 3c2 1 2 1 2-1l-2-5c0-3 0-3-3 1l-4 4v-10l7-47 2-27 1 3 2 1v-1l-2-6c-1-1-1-9 1-15l-1-2v-5l-1-3h1c1 4 2 0 2-9 0-10 1-25 3-24l1 5h1c4-2 5 0 4 5l-3 25-1 11-1 11c-3 9-3 18-1 26l-2 11v10l-3 1c-3-1-4 0-4 2h1c2-2 5 2 5 5 0 2 0 2-2 1-1-1-1-1-1 1s-2 4-3 4c-2 0-1 2 3 2 2 0 2 0 0 1-5 2-5 2-4 3h5l-1 2c-3 0-4 0-3 1l-1 3-3 1h2v3l-3 4c0 2 1 2 1-1l4-5c1-1 3-2 1-3l2-2 1 3 1 2 1-3 3-5 2-4h-1c-1 1-1 1-1-1l2-1 1-3h-1l-1-1 1-4c0-1 4-2 5-1v1c-1 3-4 21-1 20 1-3 5-12 3-14l2-1c1 1 1 0 2-1l2-4 2-2 5-17 1-5c0-4 0-6-1-5v-6l4-17 2-8 1-3 2-11c2-7 2-7 3-4l-1 14-2 13c0 4 0 4 2 1 1-1 2-2 1-3l2-4 6-10c4-6 5-8 5-12-1-5 0-5 3-5s3-1 2-5v-7l3-6 2-4 2-5 3-6 2-5 2-1 1-1c0-4 1-10 2-9 1 0 1 6-1 11-2 6-5 14-4 15l3-5 2-1 4-3 5-7c3-4 7-7 7-10 3-5 16-18 16-16zm-79 4l-2 2-1-2 1-2 2 2zm116-1l-3 2h-1c1-2 4-3 4-2zm265 1l2 2c4 2 3 3-2 2-3 0-4-2-4-3l1-2 3 1zm-263 4c-1 3-11 6-11 3h1l3-1 1-1 1-1 3-2h2v-1 3zm347 0c0 2-2 2-2 0h2zm-359 6l-3 1c-1 0-2-1-1-2 0-3 0-3 3-2l1 3zm363-1h-3l-1-3 1 1 3 2zm-72 0h-3v-2l3 2zm-402 13v15h-3v-19l1-8 2 12zm317-9c-1 2 0 2 4 2 5 0 10 1 10 3l-3 2h-11l-9-2-2-2 3 1c0 3 2 1 6-2l2-2zm-140 5c7 0 11 2 11 3s-9 2-12 1l-3 1h-10l-2-1-4-1-5 1-4 1-5 3c-3 2-4 2-4 0h-1l-3 3-7 4-5 1-4-1c-2 0-7-5-4-5l1-2 2-2c3 2 6 0 6-1l-1-3c-2-2-2-3-1-3l1 1h5l5-1 4-1 15-1 15 1c0 2 4 1 4-1h1l5 3zm99-2c2 6 2 10 1 10l-1-5-3-6 2-2 1 3zm-38 2c-1 2-1 2 0 0l1-2-1 2zm122 2l2-2c2-1 2-1 3 2 0 1 1 2 6 1l7 1h4l4 2 5 3 4 2 2 3 1 1c1-1 2 0 4 1 2 3 2 3 0 5-3 1-5 1-8-1l-6-1c-2 0-2-2-2-4 0-5 0-5-5-4l-4-1-4-1c-3 1-4 1-6-1h-2c-3 1-3 1 0 2 2 3 0 4-4 3-2 0-3-2-3-3 0-4-3-4-3 0l-5 3-5-2-1-2-1 1c0 1-1 3-7 3l-10 2-4-1c0-3 6-5 11-5 3 1 4 1 5-1 1-3 3-3 6-3h3l1-3c2-3 11-3 12 0zm123-2v4l-2-2c-1-3 0-4 2-2zm-272 2h-4c-2-2-2-2 2-2 2 0 3 0 2 2zm93 0v1l-1-1v-2l1 2zm-3 1l8 1 5 1c-2 3-11 5-17 4l-4-1 2-2h3l-3-1c-1-1-1-1 2-2h4zm-110 1l-1 1-1-1 1-1 1 1zm-119 1h-3c-2 0-2 0-3 3l-2 2v-4c2-2 8-3 8-1zm168 1l-1 3-1-3 1-1 1 1zm11 5c-1 3-2 2-2-2v-5l1 4 1 3zm245 11l5 13-10-20-5-6-1-3c0-3 7 7 11 16zm-253-12l-1 1v-2c1-1 3-1 2 1h-1zm-125 7h1l-3 4-5 6-3 4-1-3 1-3h2l1-1v-7c1-2 1-2-1-1v-2l1-3 4 4 3 2zm175-4v1l-3-1v-2l3 2zm-38 2h2c3 0 3 0 2 1-2 1-6 1-8-1h4zm65 1c-3 3-8 4-5 1l6-3-2 2h1zm-331 3c-2 1-2 0-2-2 0-1 0-2 2-1v3zm116-2c-1 2-1 2 0 0l1-2-1 2zm279-1l-1 1-2-1 2-1 1 1zm-364 0l-1 1h-1l1-1h1zm54 1l-1 2-1-2 1-1 1 1zm292 2l5 2 2 1c3 0 3 0 2 2-2 2-2 2 1 3 2 1 2 4-1 4h-2l-1 1-1-1-2-3h-2c2 3 0 3-1 2h-17c-2-2-8 0-12 1l-6 2-8 4-7 5c-5 1-5-1 1-7 5-5 9-8 17-10h-2c-5 0-5 0-2-1 8-7 24-9 36-5zm-182 5h4c1-2 1-2 1 1-1 3-1 3 2 2h4c1 3 0 5-4 4h-34l-2 1c-4 0-5 0-11 4h-4l-1 1-26 11 11-7c6-5 19-13 21-13l3-1 2-1v-1l1-1c1 1 8 0 11-3 4-2 20 0 22 3zm-186 3l-2 22c-1 0-2-2-2-6l1-4 1-4 1-8v-6c1 0 3 3 1 6zm-3-2c0 1-3 2-4 1v-1h4zm54 2c-3 5-5 8-5 5l7-8-2 3zm356-2l-1 1-2-1 1-1 2 1zm-300 8l-4 2-2 1-2 1c-1-1 3-6 5-6h2v-3c0-1 1-1 1 2v3zm279-5v3c-2 1-3 1-3-1 0-3 1-4 3-2zm26 0l-1 2-3-2 2-1 2 1zm-210 3l-1 1-1-1 1-1 1 1zm189 1l3 3c2 0 5 2 6 4 0 3 4 7 6 8l5 3-5-2-4-2-6-5-5-4c-1 0-2-1-2-4l1-2 1 1zm-180 5c-2 0-8-1-7-2h4l3 2zm-191 2l-1 4-1-4c0-4 2-6 2 0zm487 3l3 6-6-10c0-2 2-1 3 4zm-300 4c6 3 6 3 6 9l-1 5-1-2-2-2-1 2-1 1-3 1c0 3-4 5-7 5h-1c0 2-23 7-26 5l-3-1c-3 0-6-2-9-4l-7-2c-1 0-3 0-1-2l-2-2-1 1c0 3-2 1-4-1v-6l3-3 1-1h3l2-1c1-1 1-1 1 1-1 4 3 12 6 15 10 7 27 3 34-6 2-3 2-10-2-15l-1-2h5c3 0 8 2 12 5zm175-2l2 4v4l1 2 1-4c0-3 3-4 3-2l2 2 2 3v2c1 1 0 6-2 6l-1-1c-1-1-2 0-5 3-2 2-3 3-6 2l-4 1-6 1-5 2c0 1-7 1-13-2-6-1-17-6-19-8l-4-3-4-1c-1-2-1-2 3-5 2-3 6-4 3-2v2l3-3 2-3 1 4c-2 8 2 12 14 16 7 1 18-1 23-5 2-3 4-4 2-9l-1-7c-3-4 1-4 8 1zm-152 6c3 5 0 4-2-1v-3l2 4zm5-3l-1 1-1-1v-1l1 1h1zm75 1l-2 1h-1l1-2 2 1zm-123 2l-1 5c-2 4-2 3-1-3 0-5 2-5 2-2zm181 2l-2 2-2-1 2-3c1-3 2-2 1 2h1zm148 2l2 7-7-12c0-2 3 0 5 5zm-412-2h-1l1-3v3zm212 2c-2 1 0 2 3 2 8 2 6 4-1 4s-8-2-5-8c3-3 4-3 4-2l-1 4zm112 0v2l-1-2-1-1-3-1c0-3 4-2 5 2zm-430 1v4l-1 1c-1 1-3-1-4-4 0-1 1-2 3-1l1-1 1-1v2zm221-1l-2 1c-2 1-3 0-2-1 0-1 4-2 4 0zm205 2c2 3-3 2-7-1-1-1-1-1 1-1l6 2zm-460 0l-1 2-2-2 3-1v1zm140 0l-1 2-1-2 1-1 1 1zm78 0l-2 2-1-2 2-1 1 1zm176 0l-2 2h-1l3-2zm-141 3h3c2 1-2 2-5 0v-1l2 1zm67 0l-1 1-2-1 3-1v1zm-59 0l-1 1h-1l1-1h1zm-160 2l-1 2-1-2 1-1 1 1zm362 3l2 5v3h1l2-2 1 1 1 6c3 5 3 17 1 19l-3 6c-2 5-4 7-4 2l-1-1c-1 0-3 5-1 6l-4 6c-3 4-4 7-3 9 2 7-1 13-3 9l-3-2c-2 0-2-2 0-5l3-2c0-3-3-2-5 1-3 4-4 7-1 7l1 1c0 3-5 5-6 4l-3 3c0 2-1 4-3 4-3 3-3 3-3 0 0-2 0-2-2-2l-3 4c2 2 0 5-1 5-2 0-2 0-1-3 0-2 0-2-1-1-3 1-3 1-3-1l-1-3-1 4 1 2 1 2-2 2 1 1 5 1c5-1 16 0 16 2h-3l-23 3-2 5 2 1c3 0 3 0 1 2-3 2-6 1-6-3 1-3-2-5-2-1v4l2 3 3 4 2 4v3l1 4c-1 0-7-2-6-4l-1-1c-2 0-4 4-4 9l4 2c1 0 2 0 2 3l-1 3-1 1c0 3 0 4-2 4-2-1-3 0-4 1-1 2-1 2-5-2-2-4-4-4-4-3 0 4-2 3-3 0l-4-4c-2-3-2-8 1-8l1-1-6 1c-6 4-6 4-6 1l2-1 3-2v-5c-2-1-2-1-1 1l-1 3c-1 1-3 0-3-2h2l1-1c-1-1-6-1-8 1l-3 2c-4 1-4-2 1-7l5-3-4-5-3-4 2 5c1 1 1 1-1 1h-3c2 0 0 3-2 3-4 2-6 3-4 1 3-1 3-7 1-9-1-1 0-1 2-2h2l-2-4-3-5c0-2-1-3-2-3l-1-3 1-1h2c1-1-1-1-3-1-5 0-7-1-4-5 2-2 1-9-1-9v-4l-2-5-1-3-1 1-1-9-1-9-2-13 2-19c0-6 0-6 3-8 8-3 11-1 22 3 8 3 11 4 17 4 10 1 10 1 9 3l3 1 5 1c3 1-1 2-7 2l-7-1-4-1-5-2c-6 0-11-3-19-5-6-3-6-3-9-2-2 3-2 4 3 13 3 8 9 16 19 20 4 3 21 5 21 4l6-1c10 0 22-7 23-12v-2h-5l1 3c2 1 2 1-1 1l-3 1h-4c-3-1-5 0-5 2 1 1-7 2-10 2l-1 1c-1 1-1 1-1-1s0-2-3-2c-1 1-3 1-5-2h-7c1-1 0-3-3-3h-5v-3c2-1 3-3 1-3l-3 2h-3c-1 0-1-1 1-1 2-1 2-1 1-3h-5c-2 0-2 0-1-2 1-1 3-3 5-1l4 1h12l16 2c2 2 5 3 6 2l5-3c2-1 2-1 2 1h1l6-2c8-1 13-4 21-11 5-5 8-7 11-7l6-2 3 3zm-429 0l-1 2c-1 1-1 0-1-1l1-2 1 1zm520 0c0 2-6 5-12 5-5 1-3 1 1-2 4 0 8-2 9-3h2zm-525 2l1 5c0 3 0 3 2 0v4c0 6-2 7-2 3l-1-6-1-8 1 2zm144 0h-1l3-2-2 2zm6-1l-1 2-1-2 1-1 1 1zm5 5h-3v-1l3 1zm351 1l-5 3c-2 1-2 1 0-2l5-2v1zm-430 1v2l-1-2v-1l1 1zm156 0l-2 3 2-4v1zm-119 3l-3 2c-1 1-1 1-1-1l1-2 1-2 2 3zm217-1h-1l-3-2h3l1 2zm-131 0c0 2-6 3-8 2-2 0-2-1 1-1l7-1zm192 1l-2 1v-1h2zm-9 1l-2 1-1-1 2-1 1 1zm-46 1l-2 1-2-1 3-1 1 1zm161-1l-6 5-6 4 5-4c5-5 7-6 7-5zm-388 9l-3 1 2-3 1-2v4zm-108 2c0 4-1 5-2 5-3 0-4-4-1-4l2-2h-1c-1 2-3 1-1-1 0-4 3-3 3 2zm82 1c1 3 1 3-1 1l-2-4c-2-4-2-4 1-2l2 5zm209-1l-1 4-1-4 1-4 1 4zm-320-4l-1 2h-1l1-2h1zm342 13c0 6 0 7-1 3v-7l1-5v9zm-343-7l-1 3v-3l1-1v1zm143 0l-1 2-2-2v-1l3 1zm-5 4c-1 1-1 0-1-1s0-3 1-1v2zm-27 1h-2v-2c1-1 2 0 2 2zm33 0l-1 3c-1 1-1 0-1-3l1-2 1 2zm-116 4c0-4 2-4 2 0l-1 4-2 1 1 1 1 1-2 2c-3-2-4-8-2-11l2 1 1 1zm460 1l-3 4 1-4c4-3 5-5 2 0zm36-1c2 2 2 2-1 1l-3-2c0-3 1-1 4 1zm-406 10l3 3c0 3-10-4-12-8-3-6-2-7 2-1l7 6zm-3-8h-2l-2-2h2l2 2zm265-2l-1 1-2-1v-1l3 1zm-286 2l-1 2-2-2 2-1 1 1zm409 13l-2-5c0-8 2-9 2-3v8zm33-4l9 10-16-16-1-3 8 9zm-426-2l3 4c3 2 4 4 2 4-3 0-6-4-8-8-1-5 0-5 3 0zm189-2l-1 3-1-3c1-2 2-1 2 0zm-216 10v11l1 3c0 4 6 6 10 2l1-5c0-2 1-4 3-4l1-3v-3c2 0 3 4 1 5s-1 14 1 14l1 1 2 2 1-3v-3c1 0 1-1 1 14l1 8c2-3 3-2 2 1 0 4-5 3-7-1l-1-5-1 2c1 3 0 7-2 7l-2 2-1 3c-2 0-6-3-6-5l-1-3v4c0 3 0 3-1 0-2-1-3-2-2-4l-1-1c-2 3-5 0-6-5l-1-6-1-1v-20l1-3 2-6 1-6 2-2 1 10zm402-6l-1 1 3-5-2 4zm-339-1l-1 2-1-2 1-1 1 1zm-116 2l-2 3c-3 0-4-2-4-3 0-2 1-2 3-2s3 1 3 2zm295-1l-1 1-2-1v-1l3 1zm162 4l-7 8c-3 0-1-2 4-6 4-6 6-6 3-2zm-328 2l-3 1v-2l3-1v2zm-130 1l-1 6-1-2v-5l-2 5-1 4v-5c0-4 0-5 3-5l2 2zm65-1v4h-1v-5l1 1zm410 1c0-2 2-1 4 4l5 9c5 7 10 22 8 30 0 5-3 11-8 15l-3 3c0 2-1 3-3 3-3 1-3 1-1 4l-2 2c-2-1-3 0-5 1h-1l-3-2c-2 0-5-1-7-4-3-2-3-4-4-10l1-8c1-1 0-5-1-5v-1l3-5 1-3c0 2 2 2 3-1v-6c2-1 2-1 4 5l2 12 1 6 4-8 1-2c1 2 1-2 1-7l2-10v-1l-2-4v-3l-1-4c-2 1-5-6-2-10 0-2 0-2 2 0l1 3v-3zm-505 8c-2 1-2 0-2-3 0-2 0-3 2-2v5zm117 0c6 6 8 8 4 6-5-4-4 0 1 5l5 6-2-1-4-4-8-6c-2-4-3-5-5-4-1 1-1 1 0 0v-5c-1-5 3-5 9 3zm368 0l-4 2 1-2c4-4 5-4 3 0zm67 2h-1l-3-2h3l1 2zm-449 0l-1 1v-1l1-1v1zm231 3l2 3 2 6c0 3 0 4-1 3l-4-1-4-2 4-1 5-1-4-3c-3-2-3-8 0-6v2zm-177 2v2l-1-4 1 2zm166 0l-1-1c-1-1-1-1 0 0l1 1zm8 1c0 3-2 4-3 1-1-2 0-4 1-4l2 3zm145 3l-7 6 5-6c8-9 11-9 2 0zm82-3c2 5 1 5-3 0l-1-3 4 3zm-395 1l-1 3-1-3 1-1 1 1zm315 4l-12 9 8-6 7-7 1-1-4 5zm-151-1l-1 1-3-2c0-2 3-2 4 1zm122 5c-1 3-4 5-4 2l7-7-3 5zm114-1l1 2s2 1 2 4c3 5 3 5-2-2-4-6-5-7-2-7l1 3zm-452 1h-1v-1c0-3 1-2 1 1zm10 0c-2 0-2 1 0 0l4 3c5 5 10 9 16 11l4 3c0 2-5 1-6-1h-3c0 1 5 5 8 5l3 1c2 1 3 2 7 1l3 1c0 1-10 3-12 0l-6-2c-6-1-16-10-20-19-2-3-2-3-1-4 3-2 3-2 3 1zm46 0l-1 1-3-2c0-2 3-2 4 1zm309 3c-1 3-13 9-13 9l4-5 8-5 2-1-1 2zm-302 0l-1 3 1-3c0-2 2-1 0 0zm13 2l-2 1-1-1v-2l3 2zm105 3c0 2-4-1-3-2h3v2zm144 0c-2 2-3 3-4 2l1-3c4-2 6-1 3 1zm-206 0l-1 2-1-2v-1l2 1zm341 2l-1 1h-1l1-1h1zm-100 2l-12 6 11-7 1 1zm-281 1v3l-2-2h-1l-3-1c-1-2 3-1 6 0zm36 0c1 1 0 8-2 8v-2l-1-2v-5l3 1zm-65 3h-5c-1-2 0-2 2-2 3 0 4 0 3 2zm44 0l2 1c0 1-1 2-3 2l-4-1h-2l-3 1-1-2c0-3 1-3 5-1h6zm146 1l-3 2v-2l3-3v3zm120-1l-6 6-10 7-5 3c-3-2-2-3 2-5l4-3 11-7 2-1 1-2 1 2zm-297 2h-1l3-2-2 2zm8 0l-2 1-2-1v-1l4 1zm39 0c-2 3-5 4-6 3l-3-2 6-2 3 1zm259 1h-2l2-2v2zm-374 2h-1l2-3-1 3zm230 0l-2 2c-1 1-1 0-1-2l1-3 2 3zm18 1l-1 3v-2l-2-1v-3c2-2 3-1 3 3zm-220 1c4 4 9 5 7 2-2-2 2-1 3 2l7 3c7 0 7 0 6 2s0 3 5 3l5 1 2 3v5l-3-1c-1-3-11-3-11-2l3 2 10 4c4 3 9 4 9 3 2 0 7 8 8 15l5 8c3 5 3 6 3 22l-2 23-1 11c1 5 3 4 3-2l2-4 1 7c0 8-1 11-2 10-1 0-3 3-5 14l-6 13-4 9c1 1 0 2-1 2s-2-1-1-2h-1l-3 2v1l-2 4-4 4c-1 1-5 0-4-2h2l1-4v-13c-3 2-3 0-1-5l2-2v-2l1-2c3 2 3 0 3-1-2-2 0-5 1-7l4-6c0-3 1-4 3-3h1l-1-3-1-3c0-2 1-2 2-2 3 1 3 1 2-2 0-3 2-19 5-24 2-5 1-23-3-32l-2-7c-2-2-6-10-11-13l-6-4-3-3c-1-2-1-2-2-1h-3c-2-2-5-3-5-1h2v7l-2 3h2l1 3c-1 5-1 5 1 4l1-5v-2c3 1 3 12 0 17l-3 10-3 5-2 3-4 6-9 17c2 4 4 3 4 0s6-15 9-17v-1l2-6c3-1 4-6 5-9l7-14 2-4c1-4 3-1 3 5 0 7-2 16-6 24l-2 8-2 2-2 5-2 7-4 8c-1 6-5 9-7 8v3l-2 5-7 9-1 2 6-11 2-4c0-3 0-3-1-1-4 2-2 0 1-8l9-17-1 1h-2l-2 5c-1 3-1 5-2 4v1l-5 9c-5 7-6 6-3-3 3-5 3-6 0-9-1-3-1-4 1-7l2-7c-2-1 0-2 1-2l1-1 1-4 3-5 1-4v-2l-2 4-4 6c-1 2-1 2-1-2 2-6 2-6 0-7l-2 3-1 4c-2 2-2 0-1-2l1-7v-6l1-2c2 2 5-7 4-8-1-3-4 0-4 2l-1 1-1 2-2 7 1-6v-9l-1-2 7-16-4 1c-2 0-5 6-5 10l-1 5c-2 2-2 2-2 0-3-9-3-12 1-9 1 2 1 2 2-1l2-4v-8c2-4 6-5 4-1-1 2-1 2 2 0v-4l-5-5c-3-4-4-4-5-2l-1 2 1-4c1-1 2-3 1-4 0-3 1-2 5 2zm53-2l-2 1-1-1v-2l3 2zm157 2c-1 5 0 6 3 7 1 0 1 2-2 3l-6 1-5 2-2 2 2-3c3-2 5-12 4-14l4-2c2 0 2 0 2 4zm-138-1h-1l-3-1h3l1 1zm371 3l-1-1-2-3 2 1 1 3zm-218-1v3l-3-3v-1l3 1zm69 0l-1 1-5 2c-2 0-2 0-1-2 4-2 7-3 7-1zm15 1h-2l-4-1h2l4 1zm-228 0v2l-2-2v-1l2 1zm-15 4c4 3 2 4 0 1l-4-2c0-3 2-1 4 1zm263-1c1 0 2 1 1 2l1 2 1-2c0-2 3-1 3 2l2 4c1 4 1 4 1-2v-4l2 4 1-2 1-4v17l2 11v4l2 5c2 3 1 4-3 0-2-3-3-3-3-2l1 3 1 5-1 2-1-2-2-4c-1 0-3 1-1 2l5 15-2-2c-3-6-7-13-8-11l1 3 3 5c0 3-1 1-3-2l-3-6-1-2 1 8c2 1 2 5 1 5-2 0-2 1-1 2h2l3 1v6c-3 3-3 3-3 0l-3-6-3-6-2-3-2-3v-1c-2 0 2 8 5 16l13 25c0 3-2 2-4-5l-5-8-4-5c-1-2-2-2-2-1l1 5 1 1v1l3 7 3 9-1-1-2-4-4-8-1-3-1 1c0 3-2 2-4-2-1-2-1-2 1-1h1c2-1 0-3-1-4-2-1-7-11-7-17l-3-9v-22c0-2 0-2 3-2l2-1 2-5h1c0-3-3-1-9 6-7 7-7 7-5 9 3 1 3 2 3 7l2 12 3 11 2 9 1 5 5 9 4 9 1 2 9 17-3-2-1-3-1-2-6-9-3-3-1-4-4-6-3-4 7 22 4 9-3-3-11-18v-4c-2 2-5-4-3-7 0-3-2-2-4 0v6c2 3 2 6 0 6l-1 3-2 5-2 1-2-7c-2-4-3-7-2-9l-1-8v-13c3-13 3-14 5-17l1 10 1 11v5l2 5c2-3 2-11 1-14l-1-23v-7c-3 0-5 6-6 8v4l-2 1-1-2v-1l-1 1-1 2c0 3 0 3 2 1l1 2-2 9-5 10c-1 4-1 6 2 8 3 1 2 3-1 3v1c3 3 3 4 3 8v5h1l-1 1c-2 1-3 2-3 6l-1 6c-1 0-2-16-1-20v-3c-1-1-1-1-1 1l-2 4v-28l8-21 2-6c1-3 17-19 20-19l6-2 6-2c1 1 1 1-1 1l-3 3h1c3-2 4-1 5 7l3 6c1-2 0-5-1-9l-2-7v-4c-1-2-1-2 2-1zm-228 4l-2 2v-2l2-2v2zm126 0l-1 1c-2 0-1 6 2 8l4 5 3 5c2 3 2 3 0 4-3 2-8 2-8 0l-3-5-4-5h-1v-11l-3-1-2 1c0 2-4 4-4 1 0-2 17-6 17-3zm86 1l-3 1v-1h3zm136 8l2 5-5-12 3 7zm-235-2l-3 1-2-1 2-1 3 1zm-149 1l2 3-3-2c-4-2-2-3 1-1zm-15 1l-1 2v-2l1-1v1zm97 0l-7 2c-1-2 0-2 2-2h5zm144-1l-2 1h-1l1-1h2zm-100 5h-2l-2-1c0-3 2-1 4 1zm155 0v1l-2-1v-1l2 1zm16 1l2 3h-2c-4 1-5 0-5-3h5zm-167 1l-2 2v-2l1-1 1 1zm25 2l-4 1c-2 0-2 0 0-1h4zm236 12c0 5 0 5-2 1v-7l2 6zm-358-4l-2 1v-1l2-1v1zm9 3l-1 1-1-1v-2l2 2zm59 2h-1v-1c0-3 1-1 1 1zm40-1h-2v-1l2 1zm7 0h-4c-1-1 0-1 2-1s3 0 2 1zm33 4h-2v-4l2 4zm18 0h-1l-2-2 2-1 1 3zm14 2c-1 1-3-1-2-2h1l1 2zm-417 2c-1 2-1 0-1-1s0-2 1-1v2zm181 2c1 5 1 23-2 31l-2 6c-1 8-10 27-11 26-1 0-7 10-7 12l1-1c2-4 2 0 0 4-3 6-3 5-4 3-2-2-5 0-4 3 2 2 0 6-2 7l-1 4-3 4v2l-3 4c-4 6-5 3-2-4l3-9c-1-1 0-2 1-2l1-2v-2l5-8 5-8c1 2 1 0 3-2l2-4 1-1 1-6 5-11-1-1-7 13-9 15-5 6-1 2c-1 2-2 2-1-2 0-5 1-9 5-10l3-5c0-6 3-11 5-9l2-2v-3c2-2 6-8 4-9l2-2 5-14 4-14 3-9 1-7 3 5zm112-3c0 3 0 3 2 1 3-3 8-3 8 0l-2 3-2 1c0 4 1 3 5 0l1-4-1-2c0-2 2-1 2 0 0 2 6 6 8 5 2-3 3-1 3 0-1 2-1 2 2 1l2-2 4-2c3 0 5 2 1 4v9l1 2 1 5 3 7h-1l-3-1-2 3c-3 0-3 0-3-4v-5l-1 1-1 3c-3 0-3-3 0-9l1-6-5 10c1 1-2 11-4 11l-1-5 1-4 2-2c0-4-3-1-3 3l-2 8c-3 6-1 7 3 6h20c12-1 17-1 13-4l-2-3-2-2c0 5-4 2-7-6l-4-10c-3-4-4-6-2-6h2l-2-1c0-2 3-1 6 3l5 3c2 0-1-3-5-6l-6-6 6 1h5c-1-3 15 4 20 10l1 1-5-7c-6-6-6-9 0-4h4l12 10c3 2 6 15 7 22 0 6-1 6-3 1-1-2-1-2-1 0 1 4 0 3-2-1-1-4-3-5-3-2v2l-2 1-2-2-4-6c-1-5-3-10-5-9l2 6 2 8v2l-2-4-4-1 1 1c1 2 0 4-1 4l-4-9-2-2-3-5c-1-2-1-2-2-1s-1 2 1 5l1 2c-2-1-7-1-7 1h5c2 5 5 11 4 13l2 2c3 1 3 1 1 4-2 2-2 6-1 6v2l-2 4-2 2c0 2-1 0 0 0l-1-2h-2l-5 1-9 3c-2 2-7 3-8 1l-6-1c-4 0-4 0-4-4l-1-3-1 2c1 1 0 2-2 3-2 2-8 0-8-1l-3-1-2-1-3-3-3-3c-3-3-3-3-1-5l4-3 3-5 1-7c0-5-2-5-4 0s-4 7-4 5l4-9c2 0 3-2 3-6l2-6 2-2-2 1h-2l-3 4-3 6-1 2c-3 0-3-2 1-7l1-4h-2l-2 1-1 5-1 4 2 7c-1 2-1 0-1-1 0-5-2-5-5 0l-2 6-5 5-1 2 1 3 1 2h-1l-3 3c-1 2 0 7 3 7l1 1h-1l-3-1-1-2-2-3-1-3 2-4c1 1 2-1 2-6l-1-7-1 1-1 1c-1-1-4 2-4 6l-4 11-1 11v2c-2 0-2-6-1-11v-6c-1 0-2 6-2 16l-2 9v5l-1 3c-1 5-2 5-4 0 0-2 2-3 3-3l1-2-2-1c-3 0-4-1-4-2v-1l1-2-5-1c-2 0-2 0-2 4l-1 12-2-2v-11l2-7 1-7v-5c-1 0-4 5-5 11l-1 5-1 5c1 2 0 4-2 6l-2 9c-1 5-1 6-4 6l-2 7c0 7 0 10-3 11v3l-1 3c-2 3-4 4-5 3-1 0-1-13 1-13l2-2-2-1h-2l-1-1-1 9v10l-3-4c-1-3-1-3-1-1 0 3 0 4-1 3l-1 8c0 12-3 16-3 4l-1-12c-1-3-1-3-1 3v16c1 5 0 5-2 5l-2 1h-1v-1l2-5v-5c-2-2-3-11-1-11 1-1 2-5 0-5s-4 7-2 10c0 3 0 4-2 3l-1 7c0 5 0 6-1 5s-1 0-1 4l2 7v4c-2 0-2 1-1 7 0 8-1 7-3-3l-2-7c-1-1-2 7-2 16l-2 4c-1 1-2 0-1-2 0-2 0-2-1-1l-1 4-2 2c-2-2-3-1-3 2l-3 2-2-1 1-1h1l-1-2v-3l3-14 2-11 2-5c2-6 3-6 3 0 1 4 1 4 1-1v-7l1-5c2-5 4-5 5-1 1 2 1 2 1-2l2-3 1-3-1-1v-1l-2-3v-2c0-1 2-1 3 1l1 3 1-3c0-2 2-3 3-2l1-4v-5l1-3 1-3 2-2 2-6 1-3v-2l2-3c1 0 2 6 1 8l-1 4v4l1-4 2-4v-3l1-1c3 0 4-3 2-4l-2-2 2-3c1 2 1 0 1-1l-1-1 2-11 1-5 1 4-1 6-1 6v4l2-3 5-6 2-4c-3-1-2-2 2-3 2 0 5-3 5-4l4-5c1-1 2-5 1-6 0-2 1-4 2-2l1-3h3c1 4 1 4 6-7 5-9 11-17 15-18v1l-3 6-1 5v2l2-3c3-7 14-19 16-19 2 1 3 0 3-1l6-11-5 12-5 6c0 3-1 4-2 4v-4l2-2c1-3 0-1-4 2l-8 13c0 2 6-5 6-8h4l-3 3c-2 2-3 5 0 3 3-1 5-2 5-6l16-16 2-3 4-5-1 2zm120 1l-2 2h-1c0-3 1-4 3-2zm-127 0l-2 2h-1l1-2h2zm90 2l2 2c4 3 4 4 3 6v1c1-1 4 0 6 4 5 4 6 5 8 1h2v4c0-1-2-1-2 1l2 6 2 4 4 5c2 2 5 5 1 3v7c-1 1 0 4 1 4 4 0 6 0 6 3l-1 1h-2l2 4 1 3 2 2v-5l4 5 2 7 1 11c0 6 0 7 1 2l1-4c2 0 3 11 2 14v8l2 4 1-11h-1l1-3 1-3 2 2c1 2 3 3 3 2l2 1h-4c-1-1-1 0-3 4 0 4 2 5 3 1 1-1 2-1 5 3l3 4 2 2 3 1c2 2 2 2-1 1-4 0-2 0 1 5l2 4v2l2 6 2 5c2 0 2-1-2-8v-7c2-1 2-1 0-1-1-1-1-1 1-1l3 2 1 4-1-1-2-1c-2 0-1 1 3 5l2 6 2 3c3 4 2 36-3 37-1 1-1 0-1-2l1-9-2 4h-2c3-5 3-20 2-20l-2 4-1 5h-2l-3-5c-2-1-3-3-3-5l-2-4-1 3v2-5c0-6-1-6-2 0-3 6-3 4-4-3 0-10-1-18-2-18l-2 2-3 1-4-1 3-2v-1l-3-6-1-4-1 5c1 5 1 5-2 3l-1-8-2-9 1 20-1 2-3-5-1-4v-27l-1 9-3 5-1 3c-1 2-1 0-1-5l-1-8-1 2c1 3 1 3-2 2v-3l-1-2v-2c3 2 4 2 5-6 0-5 0-5-2-5l-2 3-1 1c-2 0-5-6-4-8l-2 1-2 1v-11l-2 4-1 1v-26l-1-6v7l-2 5c-2 0-2 2 1 6 0 3 0 3-3 0-2-2-2-6-2-13l-5-23-5-7-4-5h9zm220 3l-3 3-3 1-3 2 4-6c4-3 6-5 6-3l-1 3zm-409-1c-2 1 0 3 1 4 4 5 0 35-5 49-1 3-2 4-4 3-2 0-3 1-5 5-2 7-1 9 2 3 3-8 6-5 2 3-2 9-8 21-10 22l-2 5-3 4-1 1-7 12-7 12h-2l2-6 6-11 1-2 1-5c-1 0-7 10-7 12l-3 3c-2 0-2 1-2 2l-1 1-2 3h-1v-3l1-2 2-4 3-7 4-5 1-1 3-4 3-5 16-33 5-13 5-14 1-2 1-6v-22l2 1zm-188 4h-2l2-3v3zm404 0l-1 1-2-1v-1l3 1zm124 2h-1l1-2v2zm54 4l-22 13-12 9c-10 10-17 17-18 21l-4 2h-1l-1 6-4 7-3 4-1 7c1 5 0 7-1 3v-14c1-2 2-4 1-6 0 0 1-2 4-2l2-4 5-7c5-4 6-6 6-10l8-19 2-5-1 5-1 7v2l-2 4c-3 5-2 6 4 0 6-5 16-12 26-17l11-5 2-1zm-587 11h-3v-1l3 1zm-4 6h-1c0-2 1-5 2-2l-1 2zm39 0l-1 7c-3 8-3 8 0 8l3 1 5 2 6 3 4 3c4 2 4 2 4-2v-6l1-4 1-4 1-6c2-1 2 3 2 10v14l6 3c2 0 5 3 6 5l6 9c6 6 12 19 13 27 0 8 3 15 5 18 2 2 2 2 2 0l-3-9c-1-14-2-20-5-23l-2-6-6-9-4-6 1 2 4 2 8 9 5 7-1-11v-17l1-29c4 19 4 39 2 58l1 1 2 6 1 10-1 8v2l1 13v13c2-2 3 20 3 29 0 16-1 17-18 18-8 2-18 5-20 8l-2 1c0-1-3 0-4 2l-6 4-1 2-2 3-2 5c-1 6-1 6 8 8 9 1 24 9 26 12l4 3 1 1 5 4c5 3 10 11 11 19 0 5-1 5-3 0l-3-6-3-5c2-1-6-8-8-8l-1-1-3-3-4-1-4-4-5-3-10-4-10-1-1-2c-1 2-3 0-3-1l-1-3v2l-1 2c-1 0 0-14 2-19v-7c2 1 4-10 4-15s1-12 4-13c1-2 1-3-1-7-2-6-2-13 1-13v2l1 9 1 18-1 15-1 2-1 3h6c1-4 14-10 22-11 8 0 17-4 19-6l3-6v-5l-2 5c-1 5-1 5-1 0l-2-8-4-8-1-11c-1-5-3-10-1-11l-2-3-1-3c-3-17-8-36-16-53l-5-2c-2 0-6-3-6-5l-2-4-3-2 3 1 2 2-1-3-5-3c-1 0-13-6-14-8h-2l-12-4-3-1c-2 1-18-1-19-3-1-1 5-3 6-2l2-1c0-2 1-2 1 1 2 2 5 4 7 2h3l1 2 1-2c-1-1 0-3 1-7l3-7 1-1 1 2zm252 1l-4 1 2-2c3-2 4-2 2 1zm-293 1v2l-2-2v-1l2 1zm373 0l-1 2-1-2 1-1 1 1zm165 2l-1 1-1-1 1-2 1 2zm-248 3c0 3 0 3-1 1v-3c1 0 2 1 1 2zm92 4v1c-1 0-3-1-3-4 0-2 0-2 2-1l1 4zm-93 2h-1l-3-3 3 1 1 2zm-282-2c4 0 4 2 0 2-1 0-3 0-1-1l-3-1-1-1 5 1zm209 1h-1v-1c0-3 1-1 1 1zm151 5l1 1 2 1c-2 2-8-6-8-7 2-1 6 3 5 5zm23-4c0 3 0 3-2 2-2-3-2-4 1-4l1 2zm70 2c2 1 2 1 1 2s-1 2 1 7l3 9 1 2 11 22-5-6c-6-11-12-23-17-36h5zm-220 6h-2l2-4h3l-3 4zm207 8c1-1 1 0 1 3l2 7c4 6 3 7-1 2l-4-6c0-2-1-3-3-1v-6c0-11 1-13 2-5 0 5 0 6 3 6zm-232-8h-2v-2c0-2 2-1 2 2zm87-2v2l-1-2v-1l1 1zm186 3l1 1v3c0 1-1 1-2-2v-5l1 3zm5 0h-1l-1-1 1-2 1 3zm-38 0l3 6v4c-2 0 0 2 2 3l1 5 1 4 2 4 1 3 2 5 2 5c2 2 7 13 4 12l-7-14-4-7h-1c-1-2-1-1-2 3-1 2 0 4 1 5v2c-1 1 0 10 1 11l1 5c0 3 0 4-1 3l-1-2c0-1-2-8-5-11h-2c-4 3-3 0 0-3l3-2v-3l-5-5v-1h4c1 0 1-2-1-4-3-1-4-4-3-4l3 3c4 5 5 3 5-5l-1-7c-4 0-9-10-7-11l2-3 1-2 1 2v-1zm-383 1l-2 1-1-1v-1l3 1zm77 1c-2 2-2 2 0 0l1-2-1 2zm218 3c-6 6-12 8-18 8l-10 3-13 2h-8l4 4c6 7 9 11 12 22l4 12v4l1 2v3c-1 1-4 0-4-3l-3-13 1 13v11l-1-5-3-11-3-11c-2-6-4-7-5-5l1 4 1 5 1 4 2 11c1 12 0 13-3 1-2-7-5-10-3-3l1 9c0 2 0 2-1 1l-2-5c0-1 0-2-1-1 0 1-2 1-2-1l-2-1-1 2 1 5v5l3 1h1l3 1 1 2h-10l-1-2-1 3 1 3 1 2c0 2-2 0-4-4-1-2 0-4 2-6l2-4-11-30v2l1 7 3 9 1 5-1-3-2-1h-2c-2 0-4-3-1-5l1-1h-1c-3 1-3 0-4-5l-2-7c-3-3-3-3 0-3l1-14v-15c2-4 5 0 8 15 0 5 3 11 4 13l1 5 2 4 1 3v2l2 5 1 4c3 0 3-2 0-6l-4-16-4-12-3-7c0-6 0-6 3-5 2 1 7 6 11 15l5 7v-5l-1-2-5-6c0-3-3-4-3-4l-1-3-5-4-15-13 8 4c7 4 13 5 23 5 12 1 23 0 34-4l9-3c8-5 8-5 2 1zm-78-1c2 2 2 3 0 9l-1 13-1 3 1 9 1 5 2 18c2 2 2 4-1 4-1 0-3-5-5-20l-2-8c-1-5-1-5-1 4l1 10 1 3h-1l-1 2 1 3 1 7v2l-1-1v-5l-1-2-2-1c-2-15-1-30 3-44l1-5 1-5 2-3c-3-2 1-1 2 2zm-71 7c0 10-1 16-3 17l-2-1 3-11 2-10v5zm98-5l-1 1-2-1v-1l3 1zm68 2l8 11 1 2 1 2c-1 0-7-6-7-8l-4-4-2-3h3zm-102 3l-2 4c-2 3-3 13-3 26l-1 14-3-25 5-18c1-5 4-5 4-1zm94 1c3 4 11 12 10 14h-3c0-2-7-13-10-14l-5-1h-2c2-3 6-1 10 1zm16-1v1l-3-1h3zm-22 5l6 7 2 4 1 1 3 7c2 6 5 17 2 17l-1-4c-1-7-8-24-13-29-5-6-5-8 0-3zm108 1v1c-2-3-2-5-1-5l1 4zm-114 1l3 6h1c3 0 4 4 3 5h1l1 3c-1 1 0 2 2 2l1 1c-1 2 0 3 1 4v2l-1 5c0 6-1 4-4-5-4-9-7-15-11-19-7-7-5-10 3-4zm79-1h-1l1-2v2zm-78 16l5 11 1 12c-1-4-3-1-1 5 0 4 0 5-2 4l-2-6c-1-7-9-24-13-32l-5-6c-3-2-3-5 1-4h2c2-2 10 9 14 16zm-109-15v5l-2 4h-2l2-4v-6l2 1zm268 4l-3 5 3-9v4zm-312 1l-1 4-1 3v3-6c0-6 2-9 2-4zm121 0l5 3 2 3 4 4 4 8 1 2 1-2c0-3-5-12-8-15-4-5-4-7 1-3 3 3 7 6 7 9h1c2-3 10 16 10 22l1 7v2c-3 0-3 0-7-11l-4-8v2l2 4v9l-2 3-3 4-2 2c2 5-1 6-1 2l-2-5-1-4c0-7-11-35-15-37-3 0-1-3 1-3l5 2zm62 5l-1 1-1-2c0-3 0-3 1-1l1 2zm-152 1c0 4 0 4-2 3v-4c2-4 2-2 2 1zm168-2l-1 1-1-1v-1l2 1zm38 0l-1 1h-1l1-1h1zm-60 2v5c3 3 4 10 3 10l-3 4v-5l-1-9-1-4 1-2 1 1zm135 3h-2l2-3v3zm-2 6c0 2-2 0-2-5l-1-4 1 4 2 5zm-316 3l-2 7c0 2-4 6-4 6-1-2 0-3 1-5l4-10 2-4-1 6zm247-2l-2 1v-3c-1-3-1-3 2-2v4zm-212 2l-1-1v-3c1-3 3 3 1 4zm239 0l1 4-4-7 3 3zm-83-1l-2 1v-1l2-1v1zm127 1v3h-2c-2-4 0-5 2-3zm-5 4h-2v-1c0-3 2-1 2 1zm-369-1l-1 1h-2l2-1h1zm121 7l-2 3v-5c3-4 3-3 2 2zm249-1c-1 1-3 2-4 1l3-2 3-3-2 4zm-64 0l-1 1-1-1 1-1 1 1zm14 9h-1l-2-3-1-2-1-3 4 3 1 5zm-80-5l2 1v4l1 2 1 2c-1 0-6-7-6-9h2zm-215 6l-4 6c-3 0-3-1 1-5l2-5 1-1h2l1-1-3 6zm203-1c-1 1-1 0-1-3 0-1 0-2 1-1v4zm142-2l-1 9v6l-2-4c-1-3-2-6-1-7v-4l1-2 3 2zm-31 2h-1l-1-2 1-1 1 3zm-311 4c-3 2-3 2-1-1l2-2-1 3zm100-1c0 3 0 3-2 1l-2-3c3-3 4-1 4 2zm-127 0h-1v-1c0-2 1-1 1 1zm228 0l-1 1-1-1 1-1 1 1zm90 0l-2 1h-1l1-1h2zm-178 6c-1 2-1 2 0 0l2-2-2 2zm-125 8l-4 5c0-4 6-15 7-14l-3 9zm6 1l-5 7v-2l7-14-2 9zm12-9l-1 4-3 4-2 3-5 8-4 6 8-15 1-2c-1-2 0-4 1-5 3-4 5-5 5-3zm156 0l-1 3-1-3 1-1 1 1zm102 5c0 5 0 5-2-1v-4l2 5zm-290 1l-2 2c-1 0-3-2-1-3 0-1 2-1 3 1zm380 18c3 2 4 4 5 3l1 3 5 9 1 3 3 5 2 3 4 4 2 3 3 6 1 5-1-2-1-1-4-4-3-4-13-20-2-5 1-1c-1 1-6-3-6-5l-2-1-1-1-5-8c-3-2-5-5-3-6 0-2 0-2-3-1-1 1-1 1 0 0 1-3 3-3 8 4l8 11zm-377-14l-2 1h-1l1-1h2zm50 4c0 3-1 2-1 0l1-3v3zm134-1l-4 2c-3 1-3-1 0-2h4zm7 0l-1 1-1-1 1-2 1 2zm-190 2c0 2 0 2-1 1v-2c1-3 1-1 1 1zm383-2l-1 1h-1l1-1h1zm-296 7c-2 1-4-1-4-4l1 1 3 3zm191 2l8 11c0 3 2 4 2 3l1 2 2 3 9 20-2-3-15-22c-14-22-13-21-12-21l7 7zm-13-5l4 4c0 3 2 4 3 4l3 3c0 3 6 13 8 13l1 1h-1l-1 1 1 1c1 2 14 17 16 24l3 8 1 5 1 1c-1 0-6-8-5-10l-1-1-1-2c0-3-2-3-3-3l-1-1c1-1 0-2-1-4l-3-1c0-2-8-16-11-17l-2-6-5-5h-4c-3-4-1 1 6 9l7 9 1 3 1-1v-2 3l2 2 2 4 2 7c1-1 5 4 9 10l7 11 1 1c-1 2 0 5 1 6l2 5-2-1-2-5-4-6-2-5-4-2h-1l-6-12-5-8-5-7c-5-7-10-16-17-23l-5-6c-2-2-4-5-1-5l2 2c2 3 8 9 9 7l2 2c4 3 4 2 0-5-5-8-6-11-2-8zm-255 4l-2 4-1 2h-1c-1 0-1-5 1-6l1-2v-2l2 4zm310 3v2l-3-5c0-5 3-4 3 3zm62-5l-1 1-1-1 1-2 1 2zm-378 2h-2l-1-1 1-1 2 2zm55 1l-2-1c-1-1-1-1 0 0l2 1zm17 0l-2 3c-2 1-6 6-5 7l-2 5-2 2v-2c-2-2 0-4 1-4s2 0 2-5c0-3 8-9 8-6zm307 3l-1 1-1-2c0-3 0-3 1-2l1 3zm-134-1l-2 1-3-1c-1-2 0-2 1-2l4 2zm-182 2l-6 6c0-1 4-8 5-7l1 1zm175 2c0 2-3-2-1-3 0-1 1-1 1 1v2zm-192 2c0 3-1 2-4 0-2-4-2-4 0-3l2-1c-2-1-2-1 0 0l2 4zm33-4v1l-1-1v-1l1 1zm24 1l-1 1-1 2c1 1 0 3-3 5l-13 15-6 9-37 48 3-4 5-10 5-10 1-6c0-2 0-2-1-1l-3 4-1 1-1 2-2 4-6 7-3 6c-2 0 8-19 11-20l1-4 5-7 5-6v-4l1-1h1l1-3 1-1 4-5 3-3v-2l1-1v-1l5-3 3-1-5 8c-2 2-7 7-8 11l-6 7c-4 4-5 10-4 11l1 4c-1 3-1 3 2 1l3-6 1-4-2 4c-2 2-2 2-2 0l1-3 1-1 2-5 4-5 11-14c3 0 1 2 0 3l-2 3 3-2 3-4 2-2 1-1h-3c-3 3-3 0 0-4l3-2v-1l2-1 6-4c6-5 7-6 8-4zm143 0l3 1 1 2 1 1h1c-3 1 4 12 9 12 2 0 2 0 1 1-2 0-1 3 1 6l5 7 5 3 1 1 10 19c5 6 4 8-1 2l-4-3-1-3c-1-4-1-4-4-4h-1c1-1 0-4-1-4l-1-3-2-1c-1 1-8-9-8-10l-16-24c-2-3-2-4 0-4l1 1zm50 6l-2 2v-2l1-3c0-4 0-4 1-2v5zm20-5c2 0 4 9 5 21v17l-1-3-3-17-2-13-2 9c-1 10-3 18-4 16v-3l1-3 3-25 3 1zm-308 2l-2 2 2-5v3zm48-2l-1 2v-2l1-1v1zm22 0c1 2 0 3-3 5-1 3-3 4-3 3l-4 1-3 1 3-2c1-1 2-3 4-1h1v-3l3-1-2-1h-1c0-3 2-4 5-2zm151 2l4 3c2 2 4 4 2 5l2 4 17 22 6 7 3 4 2 1 2 4 1 1 1 2 8 10h-4l-4-5-1-1-5-6-6-7-3-4c0-1-3-5-7-7l-3-6-1-2c-2 0-3 3-2 5l3 3v1l2 1c3 0 3 0 1 1-1 2-1 2 2 4l2 2v-2l-1-2 5 9c1 3 1 3 3 3l3 2 1 3c4 1 12 14 11 17l1 1c4-1 6 8 5 11-1 1-8-7-7-10l-1-1c-2 1-3 0-4-4l-4-5-1-1-6-8c-11-13-21-26-30-41-3-2-5-12-2-9l2 2 2 5c2 1 4 4 2 4l4 6c4 3 5 5 6 3 1 0 1-2-1-5l-2-3-2-1-5-9-3-7c0-3 2-3 2 0zm15 5l3 6 2 1 7 10 12 17v1l3 4 1 3-4-2-5-4v-1c0-1-8-16-17-26l-8-14 6 5zm-194-3l-2 3v-3l2-1v1zm-31 4c0 5-1 6-4 3l2-2 1-2c1-4 2-3 1 1zm67-3l-1 3c-1 2-1 2-2 1-2-2 0-5 2-5l1 1zm22 2h-1c-2 0-4-2-1-2l2 2zm-53 3l-3 4-4 2-2 3 1-4 9-8-1 3zm157 0l-1 1-1-1v-1l2 1zm-155 9l-6 7c-1 1-1 1 0 0l-1-2v-3l2-3 3-2h1l-1-1 1-2c3-5 3-2 1 6zm15-8l-3 3c-2 4-4 2-1-1 2-3 4-4 4-2zm-8 3l1 2c2 2-4 13-7 13-1 1-1 1 0 0l1-4-1 1c-1 1-2 4-1 5l-1 1-1 1-2 3v-4l2-2c-2-1 1-5 4-10l5-6zm-46 10l-1 18c1-1 1-1 1 1 0 3 0 3-3 1-2-1-2-2-1-3v-21c0-2 0-4 1-2l2-3 1-1v10zm85-5l-7 10c-13 18-27 36-38 56l1-5c0-1-4 3-8 10l-4 6-1 3c1 5 0 6-2 4v-4l1-2 1-6 6-11c7-12 7-14 10-15l-1-1-2-1 3-1 6-8 11-12c2 1 6-1 8-6 2-3 2-3-1 0-3 4-5 5-5 2 0-2 14-16 15-16 0 2 2 0 4-2l1-2 4-3-2 4zm302 1c-1 1-1 0-1-2s0-3 1-2v4zm-493 0h-2l2-2v2zm311 12l5 5 2 3v1l3 3 1 2c1-2 4 2 3 2l2 1 2 2-1 1v1l3 1c2-1 8 8 7 11 0 3 0 3 2 3 3-2 6 1 4 3l1 1 3 3 2 1 1 1c0 3 0 4 3 5s13 15 12 16l-4-4-6-7c-1 1-11-11-10-12l-1-1c-2 1-6-3-11-9l-7-8c-7-8-20-25-22-31-5-7-4-8 1-2l5 8zm100-6l-1-2c0-4 1-5 1-3v5zm-278-4c-1 2-1 2 0 0l1-2-1 2zm260 3l-1 2v-3c1-3 2-2 1 1zm-9 1c2 0 2 1 0 0l-1-1c0-3 1-1 1 1zm112 14v12l-2 1v2l-1-3v-3l1-1v-1l-1-12c0-15 3-13 3 5zm-401-10c-1 5-3 8-3 5l3-10v5zm6 1c-2 1-2-1-1-4v-3l1 3v4zm28-4h-1l2-2-1 2zm79 6c-8 11-17 21-26 30l-13 14-6 5c-3 0-2 0 3-7l23-27 4-2 8-9 7-4zm-13 0l-7 7v1l-2 2-35 48-2 2v1l-2 3-1 2h-1l-2 4-2 4-1 1-4 10c-2 3-3 5-3 2l5-10c2-3 3-7 2-8l1-1 3-4 5-9 2-3 16-26 7-7h1c-1 0-1-3 2-3l1-2 1-1 1-2 20-17-5 6zm210-3v10c-2 2-2 2-2-8-2-3 0-5 1-3l1 1zm-267-1l-3 4c-1 2-2 4-1 5 0 4 2 3 2 0s3-3 4-2c1 2 1 2-5 10l-1 2-4 5-6 9-3 4 6-12 6-12v-5l-3 4-5 2 2-1 1-1c0-4 4-9 6-11l4-1zm162 8l3 6c-2 1-4-1-4-5l-3-5-2-4 6 8zm5-1l12 16 36 41-16-16c-10-7-19-16-28-24 2 5 3 7 1 5l-3-3-2-4c-2-3-4-8-1-8l1 1 1 3v-5c-3-1-8-13-7-13l6 7zm83-6l-1 1-1-1v-1l2 1zm5 0l-1 1v-1l1-1v1zm-265 1l-1 4c-3 1-3 1-2-2 2-3 3-4 3-2zm91 2l-3 5-1 2-3 4c-10 14-21 26-33 38l-5 8c-1 2-2 2-3 2h-2v4l-2-3h-3l2 4v4l-3-2-2-1h-3l2-1 1-3 2-2 3-4c13-20 30-40 51-56 4-3 5-2 2 1zm193-1h-1l1-2v2zm-313 1l-2 2-1-2v-1l3 1zm14 8v1c-1 1-2-1-2-6v-5l1 5 1 5zm274-5l-1 1-2-1 2-1 1 1zm-287 7l-1 5c-2 1-3 0-2-4l-1-6c-1-2-1-2 1-1s3 3 3 6zm22 0v-2l1-1-1 3zm123-1l-17 22-22 19 16-19c6-5 6-6 5-7v-2c3 2 8-3 7-6 0-2 0-2 1-1 2 1 3 1 5-2l4-5 1-1v2zm47 1l-2 4 2-4 1-3-1 3zm98 1h-1l-2-3c0-3 3 2 3 3zm-298 2l-2 3 1-7 1 4zm399-2h-2l2-2v2zm-516 0l-1 2-1-2 1-1 1 1zm257 0c-2 3-13 14-14 13l10-11c2-3 4-4 4-2zm66 7l2 7 1 6c-1 1-6-11-6-15v-3l3 5zm-196 0l-1 1-1-3 1-1 1 3zm106 6l-13 17-4 5-3 3 12-17 1-2c0-1 11-14 14-14l-7 8zm25-6l-3 2c-2 1-3 0-1-2h4zm16 1c-1 5-19 28-25 33l-2 3h-1l-2 2-12 12c-3 0-2-1 5-9l6-7 6-7c14-14 15-16 14-19-1-1-1-1 1-1h2l8-10v3zm46 8c4 10 4 14 1 9l-3-9-1-5 1 5-1 5c-3-1-4-5-4-11 0-3 0-3 1-2 1 2 1 2 1 0 0-5 3-1 5 8zm51-9v1l-1-1v-2l1 2zm21 4h1l3 4c1 1 2 3 1 5h1c2-1 3 0 5 6l6 12c3 4 3 5 2 5l-3-2-5-9-13-19c-1-3-3-3-3-2h-1l-1-4c1-2 1-2 4 1l3 3zm-277 2c-1 1-1 0-1-3 0-2 0-3 1-2v5zm4-4h-2l2-2v2zm5 2c0 2 0 3-2 2l-1-3 1-2 2 3zm153 3c-6 11-13 21-22 29l-2 5-6 4 1-4 7-9 5-6 8-8 13-17-4 6zm-221 0h-1l1-3v3zm351 2c4 5 2 6-1 2-3-5-3-7-2-7l3 5zm117-2l-1 2h-1c-3 0-3-1-1-2 1-3 4-4 3 0zm-247 8l-11 16-1 1c0 3-6 8-7 8-3 0-1-3 4-8l4-7 3-4 7-8 5-6-4 8zm57-1l6 10 5 7 7 9c2 2 2 6 1 5l-1-3-1-1-6-7-6-8-2-2-7-11c-2-5-2-6-1-6l5 7zm102-6l-1 3-1-3 1-1 1 1zm-194 1v3c0 2-4 3-5 2h1l2-3 2-3v1zm164 4l5 6v4l-4-5-5-6v-4l4 5zm124-2h-1l1-3v3zm-173 15l10 10 1 1 3 4c3 2 3 4 2 6-2 1-2 1-4-1l-4-3c0-1-3-6-9-11-9-8-19-20-19-23l20 17zm161-15c0 1-19 10-22 9v1l-1 2h-3l-1 1c-1-1-3 1-6 5l-6 6-2 6c-2 4-4 5-5 5l-3 1 1 1v3l-2 3c-2 0-2 0-1 2v3l-3 3-1 1c1 1-6 5-6 5l5-10 2 1v-6c2-3 4-5 4-1 1 1 1 0 1-1-1-4 1-10 4-12l4-5 3-4v-1l3-3h2l1-2c0-3 2-3 3-3l3-2 5-1c4 0 10-3 11-5l2-2h8zm-267 13l-13 12c0 3-7 6-7 5l31-29-11 12zm96-12l-1 1-1-1v-1l2 1zm45 1h-1l-1-1 1-1 1 2zm-278 1h-1l1-2v2zm215 3l2 3 1 4 2 2 3 5c2 3 3 4 4 3l1 1v1c-2-1-1 3 3 7l3 5 2 2c0 2 6 7 7 6v1c-1 1 0 2 2 5 3 2 3 2 4 1l2-1-1 2c-1 3-2 1-5 0l-6-6-3-4c-5-4-15-19-18-25l-3-8c-3-6-3-7-1-7l1 3zm-10 7c-1 1-2-6-1-7l1 2v5zm-276-4v-1l1-1-1 2zm193-2l-1 1-2-1 2-1 1 1zm77 3h-1l-2-1 2-1 1 2zm-280 2h-4c-1-3-1-3 2-2l2 2zm254 0h-1l2-3-1 3zm22 1l3 7 1 1v18l4 7v1l4 11v-4l-3-12-3-6-1-4c1-2 10 15 11 21 5 12 7 23 0 10l-1-1-1-3 1 8 5 7s-11-12-15-23l-1-6-1-3c-2 0-3-5-4-16l-1-9c-1-3 0-7 1-5l1 1zm20 4c1 3 2 7 5 8l2 5 7 10 14 16 11 12 3 5-13-6c-1 1 1 6 4 6l-11-8c-14-13-25-30-32-50 1-1 5 3 5 5l5 10 1 1v1l1 4c0 3 3 5 5 7 3 3 4 4 3 5l1 2h2l1 3 3 1 1 2v2l1 1c0-1 3 0 4 3l1 1v1c3 3 5 4 5 1 0-2-12-14-13-14h-2l-2-5-4-5-2-6c-5-5-12-22-11-23 1-3 4 0 5 5zm-48-4l-2 5c-3 5-3 5-2 7 3 3 3 3 0 6-2 4-4 5-3 1l-1 2-3 3 3-1h1l-3 5-5 6c-2 4-3 5-3 3 1-3 1-3-3 0-3 3-3 6 0 3v1c-3 5-13 16-14 15l2-2 3-4-4 2-3 5v2h-2l-2 3s-7 1-3-5l10-11 11-12 15-17 2-5c-1-1-1-8 1-8l3-3c0-2 2-4 2-1zm154 0l-1 1-1-1v-1l2 1zm-286 1l-1 1-1-1 1-1 1 1zm-82 3h2v1l2 7 9 23c0 3 1 4 2 3l2 6 7 13-13 3c0-3 0-3 3 2 0 0 5-3 1-13l-4-9-1-6-1-2-3-5-1-5s-2-4-2-9l-4-9v-3l1 3zm218 1c-1 3-5 8-6 7l6-11v4zm-235 0v1l-1-1v-1l1 1zm3 3c1 2 0 3-2 2l-1-2c0-2 3-1 3 0zm134 3h-1l-1-1 1-2 1 3zm26 0l-3 2v-1c0-2 3-4 3-1zm105 1l2 6 1 4-2-4-2-5v-3l1 2zm82 7l3 10-2-2-5-8c-4-4-4-9-1-9l5 9zm-127-7l-4 5-5 6-1 1s-4 3-6 8l-22 23c-2-1-3 0-6 4 0 0 6-11 8-11 1 0 31-31 32-36 1-1 4-2 4 0zm-120 1l-1 2v-2l1-1v1zm30 3l-5 10-3 7-3 2-2 4v1l-7 14c-3 3-5 6-5 3s23-45 25-45v4zm107 0l-3 6-2 4-1 1c0 2-10 14-19 25 0 0 3 5 16-13-18 27-17 6 0-21l-7 14-8 11c2 1 15-17 18-22l7-9-1 4zm168 0l-3 6-4 8-1 5-3 9-6 15-1 3-3-1 4-11c5-9 10-20 12-31 3-6 4-7 5-6v3zm-250-1c1 1-1 2-3 4l-3 2 1-3c2-1 2-1 2-3h3zm138 1l-1 1-2-1 2-1 1 1zm-92 6l-6 7-2 4-2 1-26 22 6-6 3-6-3 4-10 6-1-3 1-1c2 1 12-9 22-20l7-7c5-4 0 4-6 11l-7 7 8-7 10-11 3-2 2-2c-1-1 0-1 2-1h3l-4 4zm98 1c1 3 1 3-1 0l-4-4c0-2 4 2 5 4zm28 6v1c1-1 10 10 12 16 4 6 4 8-1 2l-7-9c-10-11-11-12-10-15 1-2 1-2 4 0l2 5zm-217-5v3l-2-3v-1l2 1zm226 5l-3-1-1-2c2-2 4 1 4 3zm110 0c-2 1-3-1-2-3h2v3zm-310-2l-3 8-1 3c-2 2-2 3-3 2l-1 1c1 3 1 3-1 3l-3 1c0 4-7 12-7 12l-4 5c-2 6-5 6-1 0l1-3 4-7c6-8 13-24 12-25l4-1 3 1zm321 1l-2 1v3l2 1h-2c-1-1-2-3-1-4 0-2 3-3 3-1zm-355 1l-1 1-1-1 1-1 1 1zm71 6c-7 8-8 8-8 6s11-13 13-12l-5 6zm130-5h-2l-1-1 1-1 2 2zm35 2c-1 1-1 2-2 1l1-3 2-1-1 3zm-61 5l-2-2c-3-3-2-5 1-2l1 4zm-283 11c-2 3-2 3-2-3 0-4 0-5 2-4v7zm22-5c1 0 1 1 0 0l-2-2c0-2 2-1 2 2zm84-2l-1 3v-3l1-1v1zm186 7l4 9-2 4-1-4-3-2-1-4-2-3-2-4c0-4 2-4 7 4zm-264 1c2 5 2 8 1 8l-6-8c-3-5 2-4 5 0zm111 1v-1l1-1-1 2zm-125 10c8 16-3-8-5-9v-2c2 0 4 5 5 11zm96-8l-2 2v-2l2-1v1zm219 0v2l-1-2v-1l1 1zm109 0l-1 2h-1l1-3 1 1zm-300 2l-2 2v-2l2-2v2zm-138 9c-3 7-3 5-2-3l2-5v8zm167-6l-5 5c-2 4-2 1 1-3 4-4 6-5 4-2zm165-1v1l-1-1v-1l1 1zm-148 5l-2 2 4-7-2 5zm249-1c-1 5-2 5-1 0l2-4-1 4zm-421 3l-1-1-2-3h2l1 4zm46 0s-1 5-1-1l-1-5 2 6zm290-3l-2 1-1-1v-1l3 1zm-236 1l-1-1 1 1zm325 0h-1 1z"/>
</svg>