<svg xmlns="http://www.w3.org/2000/svg" version="1.0" viewBox="0 0 1280 1280">
  <defs/>
  <circle cx="640" cy="640" r="640" fill="#fff"/>
  <path fill="none" stroke="#000" stroke-linecap="round" stroke-width="36" d="M932 806a402 402 0 00-191-674C432 54 154 331 239 631c19 66 52 122 95 168m562 39l30-26s326 288 319 293m-167-169l175 163-13 15-172-166"/>
  <path stroke-linejoin="round" d="M758 1114c72-23 94-112 140-169l-3-1-19-14-15-11-6-5c-4-6-2-14-2-21 0-9 5-8 8-15 1-2 1-5 3-6 3-2 7-1 10-4 3-2-1-5 0-8l2-2c2-4-1-8-1-12 0-2 5 0 5-2 2-10-3-29-4-40l2-8 2-6s2 0 1-1c-1 0-3 2-5 1-1-1 2-4 2-6l-2-62c0-5 0-11 2-16 1-6 9-7 14-10 6-4 17-14 18-22 1-9-4-15-4-25 1-23 4-45 9-67l2-30c2-18 5-37 5-55l1-21v-2l-3 4-1 1c1-10 3-14 3-23-2-26-5-53-11-78v5c-3-6-5-12-6-19 0-2 6 7 6 5 0-10-5-13-10-20-1-2 4 3 5 2 2-1-1-4-2-6l-4-10c0-2 1 7-1 3-1-2 1-5-1-7-1-1-2 2-3 1-1-3 1-7-2-11-6-8-13-16-15-26-1-3 0-3 2-5l-1 1-5-2c-3-5-8-12-8-17 0-2 3 6 4 3 1-2 0-9-2-10-6-4-4 6-5 6-4 0-4-6-7-9-8-10-18-16-27-25l-1-3c-9-4 2 6 0 3l-9-7c-2-2-7-5-5-7 1-1 3 2 4 2l5 1c-2-2-6-3-9-4l-11-9-6-10v4c0 2 5 3 3 4l-7-3c-5-2-8-6-12-10-4-3-24-8-30-12l-2-4-10-6-1 2-42-12-1-4c-2-4-1 4-4 3l-5-9c-8-4 2 1 0 8-1 1-1-2-3-2h-22c-48-2-84-3-132 11-61 16-116 56-149 106-11 15-25 30-29 49-2 8-11 27-14 35-1 3-5 4-5 6-4 35-10 70-10 105 0 47 1 94-1 144 0 16-7 41-11 58-1 8-5 16-7 24h-2v11c3 11 22 13 31 16l5 2c3 4-5 4-1 6 5 2 13 0 16 5 5 8 3 19 4 28 2 25 0 52-3 77 0 6-2 19 2 27 3 6 9 9 13 12v3c1 1 3 0 3 2l7 15 2 8c-5 14-8 16-19 22-4 2-19 3-17 6 40 48 179 246 414 174zM621 256v14c0 2-3 3-2 5 3 6 12 5 18 6 2 0 4-5 5-4l2 9c1 5-4 0-5 0l-20 5 2 2c0 1-5 4-6 3l2-2v-10c-1-1-2 1-3 2 0 2 3 5 1 6-3 1-6-4-9-4-1-1-17 3-18 2s3-2 4-2l8-6c3-1 8 2 11 0 2-2 1-6 1-9 0-4 2-9 1-13 0-3-4-6-2-9 1-3 12-2 10 5zm18 9l-3 1v4c-1 1-2-3-3-3-1 1 0 5-2 5-4 0 9-8 8-7zm-125 28l-8 9-22 31-9 11v5l-4 8c0 5 2 11-2 15l-1-1-6 6c-2 2 0 6-3 6l-2-1c-7 0-12 6-18 9-1 1-3 5-5 4-2-2 0-6 0-8 2-9 8-16 11-25v-5c8-13 13-26 19-39 4-9 12-16 18-24l-1 2c-4 8-10 14-13 22-9 18-16 38-24 56l-6 13v3c2 0 2-2 4-3l5-4c2-2-2-8 2-10l2 1c3 0 2-4 4-6l9-17 23-33c4-7 21-20 27-25zm128 2l-3-1 3 1zm-27 17c-2 1-1-4-1-7l1-6c1-1 0 3 2 3 0 0 2-7 3-6 2 2 1 14-5 16zm-72-11l-4 2-6 3-12 9c-11 11-24 20-31 33-2 3-10 10-9 12 1 5 6 0 8-2 10-8 16-18 25-25l19-14 9-5 1-1c-13 12-36 24-42 40-1 2 6-5 5-3-5 7-16 10-24 14-3 2-6 5-9 4-2-1 0-4 1-6 0-2 3-2 4-3 4-3-1-8-1-12l1 2c4 0 4-5 5-8l5-2c2-2 2-5 5-7 16-11 46-30 50-31zm103 7c0 1 2 3 0 3-3 0 1-5 0-3zm-258 5c-1-1 1-5 2-4 1 0-1 5-2 4zm241 8l1 1-6-2c-1-1-1-3-3-3v3c0 1-1 3-3 3l-6-2c-1-1 2-1 2-2 1-2-1-4 1-5l5-1 3-2v-2l6 12zm6-12l-4 1c0-2 4-2 4-1zm-25 16l-4-2-1-1c1 0 11 3 5 3zm-30 7l-1 1c1-7 1-2 1-1zm-37 19c-2 1-2-4-3-6l-1-7c0-2-2-7 0-7 1 0 8 19 4 20zm-12-6l2 9s-5-55 6-3c2 8-9 3-9 3-3 3-1 9-1 13l-5 1v21c1 1 1-3 2-4s4-2 3-3h-3l19-9c11-3 18-6 29-12 2-1 5 0 6-2 4-7 1-17 1-24l1 8c1 5 3 11 1 16-2 6-15 9-20 12-3 2-1 6-4 10 0 2-3 3-3 5s6-1 8-3l6-7c1-1 3-4 4-3 1 3-3 6-3 9 1 2 0 6 2 5l17-14c2 0 0 3-1 4l-2 3c-1 1-4 3-4 5l4 2 6-4c3 0 5 3 8 3 24-5 51-9 75-1 8 2 15 6 23 7l6 1c2 1 5 1 5 3h-6l-22-5c-3-1-6-4-9-4-2 0-2 3-4 3-3 0-5-4-8-4-2-1-4 3-5 3-2 1-4-3-6-3-7-2-19-3-26-3-8 1-17 6-25 7l-9-3-2 2-6 1-13-1c-1 0-3-2-4-1v3l-2-1-7-1-16 1c-2 0-5-2-6 0s16 3 8 3l-8-1c-2 0-3 4-5 4s1-4 0-5l-5 1c-1 1 2 4 1 4l-29 2c-3 0-10-3-13-1-6 4-9 4-8 5 1 2 3 1 5 1l-2 2-4-3-25 8c-1 0-1 3-2 2l-9-3h-2c3-8 20-14 26-17l11-5-2 2-2 3-26 16 2-1c6-2 13-4 18-8 4-3 5-4 11-4h7c2-2 2-6 3-8 3-5 9-6 12-10 1-2-3 1-4 2l-10 6-5 2c4-10 18-13 26-17l8-4c1-4 5-14 3-18l-2 2-3-1c4-2 7-5 11-5 2 0-2 3-2 5-1 4 1 9 1 13 0 6-2 6-7 7l-11 12-6 8c-1 1 0 5 1 4l7-7c10-9 19-13 21-25 1-9-1-19 3-28 1-1 3 8 4 12zm-160 95c0 2-1 11-3 13l-2-3 3-15 9-38-7 43zm372-35s6 2 4 4c-3 2-7-4-9-4-2-1-7 3-7 1s5-2 4-3c-3-2-7-1-10-2-4-1-10 0-12-3l3-1c4 0 16 3 27 8zm-380 6l-2 11c-1 2-1 6-3 5-6-4 6-19 5-16zm432 36l-2-2-8-7-10-11c-1-2-6 2-8-1l-1-6c-2-3-6-4-9-6l-3-4-4-2c3 0 35 25 45 39zm-159-17c-2 2-16 6-12 11 1 2 4-1 5-1 3-1 11-6 11-10 0-1-4 1-4-1l2-1 2-3c12-2 20 2 29 6 2 1 5 0 7-1l3-1c-1-1-16-4-10-4 13 0 18 7 29 12 4 2 13 1 12 8-1 3 4-5 6-7l1-1s-3 8 0 9l5-1c2 0 5 4 3 6s-10-3-8-1c1 2 15 4 14 6l-2 1v4c-8 1-15-1-23-1l-23 1-3 4-5-1c-5 0-5 2-9 4-7 4-13 6-18 11 0 0-6 7-9 5-4-5 1-12 1-16 0-2-4-4-3-7 1-2 6-6 6-10 0-1-4-3-3-4l9-2h3c-1-2-4-4-7-4-4 1-10 8-15 9h-13c-2 0-4 2-5 1-3 0-4-4-7-4-4 0-7 5-10 3-2-2-4-5-7-6l-9-4c-4-1-6-4-10-4-3-1-6 3-8 2-6-1-6-2-10-6l-3-1s11 2 13 1l1-2c2 0 4 3 6 2 7-1 7-7 21-5 2 0 0 3 1 3 4 2 7-3 11-4l4 1h3c-3 1-9-1-10 2-1 1 2 1 3 1l6 2c2 1 3-6 5-6l8 4c6 0-9-8-2-5l12 6 2 1c4-4 5-4 4-2zm22-6h0zm-299 17c0 9-1 18-3 26-1 3-2 6-1 9 0 0 4 6 3 7-1 0-3-6-6-5-4 2-2 7-2 11v-1c0-2-1-5 1-6s4 1 5 3c2 2-4 7-6 8l-3 1 3-30c0-5 4-10 5-15l-3-1v-5c0-2-5-2-3-3h3c3-3 8-5 7 1zm100 7l-3-1-1-6c-1-2 6 2 4 7zm90-9c6 1 13 5 19 5l11-3c1 1-2 4 0 5 1 0 2-2 3-1l3 4-2 4 5 3c5 1-2-1-2-6 0-2 4 1 6 3 3 3 2 8 3 12l3 3c0 2-5-2-5-1v10c0 2-2 4-1 7l2 4 1 1c0 1-5-1-5 1s8 3 9 3c14 1 18 9 33 3l7-4h4c-3 5-13 13-13 20-1 10 1 18 2 29 1 4-8 15-2 17l2-8c2 4-1 10-1 14l4 13-3 9c0 5 4 10 4 15l-4 8h-2c0 1 3 1 3 3 1 3-2 7 0 8h9s-8 6-6 8 3 0 4-2l2-1c0 2-3 5-2 6l5 1c1 2-6 0-7 2-4 8 3 13-6 19l-2 2-1-2c-5-2-10-3-14-6-1-3-1-6-3-8-5-5-24 2-8-16 10-11 9 11 10 14 1 1 3 4 4 3 1-2-1-5-1-7l1-9 1-3c2 0 0 5 2 5s-1-3-1-5l1-7c2-2 6-2 5-4s-5-3-5-6c0-4-1-16-7-18l-2 4c0 1 4-2 5 0 2 3 0 8 1 12l1-2-2 8c-1 2 0 7-3 7-2 0-4-3-7-3l-5 2v4c-1 1-1-5-2-4-6 9-7 13-7 23l-1-2-4-2c-4-1-3 10-3 10-3 2-8 0-6 5 1 4 7-5 10-8h3c0 4-4 7-5 11l1-1 4 2c1 3-7 10-10 9-5-1 1-5 1-6l3-2h-7c-3 0-6 0-6-2 0-1 5-4 2-4-2-1-10 3-10 6 1 2 4 0 5 0l3 1c-2 1-16 2-18 1-4-1-3-4-1-6 0-1 0-2 1-1 0 1-1 4 1 4s3-8 3-9c0-3-7 4-4-2 1-4 5-7 6-11l-4 1c-2 0-4-2-6-1l-7 10v-5l7-6c6-5-2-7-1-8 2-3 7-3 9-6h-15l-2-3c-7-4-21 5-29-1l-8-7c-1-1 0-3-2-3l-1 2s-8 0-8-2c0-4 7-9 1-9-4 0 1 5-1 5h-5l-2 2c-3-4 2-14 0-16h-4c-7-3-6-11-7-17l-1 1c-3-2-11-10-11-15 0-2 4-3 5-5 2-2-2-7-1-9l2-2c8-10 15 5 22 9l10 6c19 8 34 2 54 5 2 1-4 3-6 5-4 2-9 1-13 1-10 0 3 5-3 7l-14 2c-3 0-7-2-9 0-2 1 3 3 6 3 9 1 20 4 29 0 15-6 25-18 37-28 1-1 4-2 3-3s-3 1-5 1c-8 1-18 3-26 2l4-1 9-2 27-7 4-1 2 2-2 1c-1 2 2 9 3 9l4-5c7 0 0 5 0 8 0 4 8-1 8 7v15c1 3 0 7 3 9 2 1 0-5 0-8l1-12c2-18-3-31-7-48-1-2-2-12-4-13-7-4-15 0-21-4l-3-4c-2-3-6-3-8-6-1-1 6 0 5-1-3-3-6 1-7-3-1-2 13-2 0-6-22-6-37-10-56-11-10-1-19 1-28-1l9-7c3-3 5-8 10-10 4-2 11-1 9-3s-7 1-6 0c1-2 4-2 7-3 6-2 21-2 31-2zm63 31l1 14c0 1 4 7 2 6l-5-4c-3-1-6-1-8-3-1-3 2-6 2-9s-4-6-4-8c-1-6 11-3 12 4zm14-17l3 2 3-4c2 8-2 7-3 15-1 1 4 0 3 1 0 2-8 10-7 11l4 2c0 3-5 4-5 5s8-3 3 3h-3c-2 1 2 6 1 5l-6-10v-8c-1-7 4-24 7-22zm181 3l1 2c-3 0-2-3-1-2zm-69 3h-1c-1 1-2 3-4 2l5-2zm-293 1l-6 7-7 9-15 20c-3 3-7 4-9 7-4 5-4 12-8 16-1 2-4 1-5 2-5 3-4 11-7 16-5 10-6 19-10 28-5 14-13 26-19 40-6 16-13 32-22 46-3 4-4 10-6 13l-5 5-4 1 2-1v-3l1-3 1 1 5-9-3-3 5-5c3-6-1-7-2-12l-3-5c2-1 4 0 6 1l-2 1 8 3 1-3 3-2c0-2-4 3-6 2s-2-4-2-6l3 3c2 1 2-5 0-6s-6 7-7 5c-2-3 0-6 0-9l7-43 1-24c0-2 2 3 4 3s-2-4-3-7c0-5 2-10 0-15-1-7 2-8 3-16l2-21c1-1 1 3 1 4 1 2 5 3 5 5 1 14-4 28-5 42l-2 35v9c-1 2-5 1-7 2h1l5 4c1 3-6 3-6 6 0 1 3 2 2 3s-4 1-3 3h4l-7 6 2 3-3 4 1-1 4-5c1-1 1-5 2-4 2 1 1 5 3 4l6-11c0-1-4 2-3-1l4-3c0-1-7 0-1-5l4-1v1c0 6-3 13-1 18 2 4 2-8 4-12 0-2 5-4 6-6 3-4 5-16 6-17 1-6-2-9 0-15l6-22 3-14c1-1 2-4 3-3l-2 12-1 13 1 1c7-6 11-20 15-27 1-3 4-6 4-9 2-7 2-10 5-16l10-16c1-3 1-11 2-8 2 3-5 23-5 23 0 2 2-3 3-4 3-5 5-3 10-10 7-9 18-19 23-24zm28 10l3-1-3 1zm-110 27h-2c-2-4 3-6 2 0zm323-17c1 1-2 1-3 2h-10l-10-2c-5-1 20-2 23 0zm-150 0c3 2 12-1 10 3-1 4-9 1-14 2l-15-2c-6 0-10 3-15 4h-4c-4 4-8 8-15 8-3 0-7-4-8-6-2-3 7-2 9-4 1-1-2-5-2-6l1 1h5l8-2c12-1 38 2 40 2zm97 7l-1-4-2-6c0-1 3 6 3 10zm111 1c4 2 4 4 7 6l4 1v4c-2 1-5 0-7-1-10-1-14-9-26-11-3 0-4 5-6 5s-3-2-4-3c-3-1-5 2-7 3-3 0-5-4-7-3-3 2-14 5-17 5l-4-1c5-4 20-4 24-8l1-3c4-1 27-1 42 6zm-80-4c2 0 7 0 5 1-1 0-18 5-20 2-1-1 5 1 5-1l-3-1c0-2 9-2 13-1zm-231 1h-2l-4 2c0 1 0 3-1 2-4-4 5-4 7-4zm414 15c2 4 7 15 4 12l-9-18-5-6-1-2 11 14zm-367-4l-9 9-2 3c-2 1-1-4 0-5l2-1c1-3 0-5-1-7l1-5c3 1 10 5 9 6zm135-1l-7-1 7 1zm55 1c1-2 4-3 6-3l-6 3zm50 1c7 0 14 12 6 12l-3-3c-2-1-2 1-3 1-12 1-16-1-28 1l-13 6c-3 1-5 5-8 4-2-1 0-5 2-6 4-4 11-6 16-9 2-1-6-1-4-1l35-5zm-177 5l7 3h4c0 2-2 3-4 3h-33c-12 1-34 14-43 16-4 1 7-5 10-7l21-11c14-8 31-5 38-4zm-184 23c-1 3-2-6-1-9 2-5 6-4 1 9zm103-13l-4 2c4-5 6-3 4-2zm295 11c2 1 5 1 5 3l-8-4-11-8c-1-1 9 4 14 9zm-189 12c-1 1-1-3-3-3l-11 8c-8 4-18 3-27 4-4 1-14-5-19-7l-2-3h-5c-3-5 4-10 8-10 6 0 2 13 8 14 11 3 24 1 33-5 4-3-1-9-2-14l-2-2c5-3 31 9 22 18zm168-11c0 2-1 6 1 5 2 0 0-5 4-5 5 0 3 11 2 12l-1-1-5 2c-10 4-22 8-33 5l-19-8c-3-1-7-1-8-3 0-2 4-7 6-7v2c3-1 3-6 5-5l1 3c4 5 7 13 13 14 8 2 16-1 23-4 13-7-6-8 1-15 2-1 8 0 10 5zm-147 0l-1-2c1 0 3 2 1 2zm80 5l4 3c0 1-1 4-2 3-2-2-4-5-4-8 0-1 2-2 3-1s-1 2-1 3zm110 0v3c-2 0-1-3-3-4l-2-1 5 2zm-68 3l-4 1 4-1zm69 14c1 2 2-5 3-1 2 5 3 21 3 22 0 3-4 7-7 8l-1-1-5 11-6 17c-2 2-3-5-3-7 1-1 4-1 3-2-2-1-4 0-5 1l-1 7 1 1-6 3-6 7c-3 2-2-3-5-2s-2 6-3 8l-1-3-4-2-1-2c-5 2 1 5 1 7 0 1-4 2-1 3 5 2 17 2 20 2h-2c-8 1-16 1-23 3-2 1-2 3-2 5l3 2-8-3c-3 3 6 11 7 13v4l1 3-6-3-1-2c-2 3-3 5-3 8s5 2 5 5c2 7-8 9-13 6l-7-2c-1-1-3-2-3-4-1-3 0-5 1-7l1-1-12 2 1-1 4-2v-5c-1-1-1 3-3 4l-2-1c-1-1 3-2 2-2l-7 2-3 1c-4-8 5-4 6-9 0-2-3-3-4-5-1-1-2-4-3-3-2 1 2 3 2 4l-10 5c-1-3 0-8 3-10h2c0-4-8-9-8-14 0-1 4 0 3-1-2-2-6-3-7-5-2-6 0-11-2-17l-1-2-1 1a118 118 0 01-3-46c1-3 1-7 4-8l38 7 12 3c1 1 5 0 5 2-2 2-5 2-8 2-5 0-32-9-34-9-3-1-7-4-9-1-1 3 1 8 3 11 5 7 11 14 19 19 18 10 34-1 49-9 1-1-4-2-5-1v3c-4 2-8 1-12 2s-7 4-11 4l-3-4-12-1c-2 0-2-2-4-3h-4c-3-2 3-3 1-6-2-1-4 3-6 3-2-1 3-3 2-4-2-1-7-1-6-2 4-3 5 0 9 0 8 1 27 4 33 3l5-2c1 0 2 2 3 1 9-2 21-9 26-12 6-3 20-2 22 2zm75-3l1-1c4-2 14-4-1 1zm-498 2c1 2 0 8-1 7-4-3-3-9-3-14l4 7zm183 5l2-2c2 0 9 0-2 2zm288 7c-2 0 3-2 4-3 3-2-2 3-4 3zm-370 1c-1-1 1-5 3-4 0 1-2 6-3 4zm-105 6c-2 1 1-4 2-6l-3-1c1 1 9 5 1 7zm308 3l-1 4c-1-2 1-6 1-4zm-227-1c1 2-7-2-2-2l2 2zm-78 4c2 5-3 2-4 4l3 2-3 1-1-10 5 3zm86 9l2 3c-16-8-5-6-2-3zm-4-7l-4-2c0-2 4 1 4 2zm411 8c3 3 12 11 8 9l-15-15-1-2 8 8zm-412 2l1 3-7-8 6 5zm-29 15c3 2 7 3 10 3 3-1 6-2 7 3 0 1 1 4 2 3 3-1 0-15 1-5 1 2 9 28-2 20l-1-5c-1-1-5 13-6 13-3-1-4-3-6-5l-1-2v3c-1 2-2-2-3-3-1-3-5-3-7-6-4-5-2-21-2-24l3-9 2-6 1-1c1 3 0 20 2 21zm391-17l-1 1 1-1zm-443 1c1 3-5 3-6 0-1-2 5-2 6 0zm-3 11c-1 2 2-7-1-7s0 10-2 8c-2-1 7-6 3-1zm473 5c4 10 9 19 9 28 0 6-6 9-9 14-1 3-10 14-14 12-13-6-13-10-13-22 0-2-2-4-1-6l7-8c1-1-2-5 0-5 2-1 3 2 3 4l3 11c0 2-1 7 1 6 3-1 2-5 4-8 8-16-2-22-2-37 0-6 11 8 12 11zm-377 12l-2-1-4-4c-4-3-10-5-12-9-5-8 10 4 18 14zm414-14l-3-2 3 2zm-209 14c-3 0-8 0-8-3 0-2 8 1 9-2l-4-2c0-1 6 6 3 7zm126 4l7-5 7-6 1-1c-1 1-5 7-15 12zm-317 9l4 2c-2 1-4-1-6-1h-3c3 3 7 5 11 6l6 1 3 1c-4 1-13 1-17-2-7-5-14-11-19-17-2-1-2-3-2-4 1-1 17 10 23 14zm313-2l5-5 7-4c1-1 2-2 3-1 0 0-9 8-15 10zm-265 3c-2 1-8-1-6-2s8 1 6 2zm33 5l-1-4v-4c0-1 2 5 1 8zm-19-5c4 1 3 3-1 3-1 1-12 0-10-2l11-1zm244 12c-1 1-3 4-5 3-1-1 1-4 2-5 2-2 4 2 3 2zm-100-3v-2l-1-4c1 0 4 3 1 6zm-186 9c2 1 13 3 7 8-1 1-2-1-3-1l-11-1 4 1 9 4c3 1 6 0 9 2l8 14 5 8c3 14 2 26 1 41 0 3-2 7-1 10 0 2 3-7 4-6 4 3 0 14-1 16l-11 24-4 10c-1 0-1-3-3-2-3 3-3 9-8 10-6 2-1-4-1-5v-8c0-3-2-5-1-8 0-3 5-5 6-7 2-6 1-11 8-14 3-2-2-3-1-6l3-3c2-7 5-15 5-22 1-25-1-38-21-52-2-1-3-3-5-3l-7-1h1v3l-1 6 2 3 1 4c2-1 1-3 1-5v-2 15c-2 14-16 25-20 38h4l8-15 14-28c1-1 0-4 2-3 2 0 3 2 3 4-1 9-10 39-18 49l-7 8-1 7-7 8-1 2c2-5 7-9 8-14v-8l8-15-2 1-2 4c-2 3-8 18-10 10s1-17 5-24l3-8 2-6c-4 2-4 7-6 9s-1-5-2-7l-1 2-1 4c-1 1-1-1-1-2l1-7v-5c1-4 5-6 5-9l-5 3c-2 2-1 6-4 8l2-6v-7c-1-6 4-11 6-17l-4 1-5 9c0 1-2 12-3 4-1-2 0-5 1-7s3-3 3-5v-8c1-1 6 1 6-1 2-4-5-10-9-10l-1 2c0-6 24 1 34 6zm179-2l-6 1-5 2-2 1 2-2c2-5 15-4 11-2zm226-7l-1-1-2-3c0-7 3 3 3 4zm-213 1l-2-3 2 3zm68-2l-1 1h-6l7-1zm8 0h0zm28 7h3l3 4c1 1-1-5 1-5l1 3 2-6v16c1 1 5 15 4 18 0 2-4-2-6-1l1 2c1 2 3 7 0 7-2 0 0-5-2-6-1 0-2 1-1 2l4 14-2-3-7-10 1 4 2 4-2-2-3-6-2-1c0 4 3 8 3 11 0 1-2 2-1 3 0 1 4-1 4 1v5c-1 3-4-3-6-5l-2-6-2-3-2-4 17 38-4-4-4-8-4-4-2-1c-1 1 8 20 8 21l-1-1-2-4c-2-3-2-8-5-10l-1 1-4-2c-1-1 2-1 2-1l-1-3c-1-3-9-18-9-24-1-6-3-14 0-20l7-8c-6 5-12 6-13 14-1 2 1 4 2 6l2 12c5 21 16 37 24 56l-2-2-2-4-10-15-4-5-3-4c2 10 9 19 11 28l-3-2-11-17c-1-3 0-7-3-10-5-5-4 11-5 14-1 2-2 7-3 5-6-6-7-26-5-33 1-6 1-12 5-16 2-2 0 6 1 9l1 15 1 4c3-8 0-27 0-33 0-3 2-8 0-7-3 0-4 5-6 8-1 1 0 5-1 4l-1-3-3 3 4 2c-1 7-6 12-7 18-1 3 2 7 1 10-1 5 4 11 2 14l-2 5-1 6c-2-7 2-15-1-21-2-4-2 12-3 4-1-14-1-39 10-50l19-17 12-4-1 1-3 3h1l5 6c1 1 2 7 3 5 2-5-2-15 1-15zm-102 0l-1 1 3 8s9 10 6 12c-7 3-14-5-16-9-1-3 2-8 0-10s-3-1-5 0l-3 1 16-3zm217 9l1 4c-6-11-2-7-1-4zm-301 1l1-1c2-1 6 1-1 1zm218 5l-7-2c0-1 7-1 7 2zm89 11l-1 2c-2-8 1-3 1-2zm-425 78l1-1v4c-1 2-5 3-7 5s-6 19-10 19c-3 0 1-10 3-13 7-14 18-25 22-40 2-5-6 7-8 11l-8 13-5 6-1 2c-1 0-2-1-1-2 2-9 12-15 14-24 3-12 11-26 15-39l3-7c0-3-1-6 1-7 1-1-7 53-19 73zm140-70c2 1-5 3-3 4 8 4 4-5 5-6 1-3 6 3 9 4 5 3 9-3 11-2 3 2 1 8 1 11l5 14c0 1-2-2-4-1l-2 2c-4-1-2-6-2-8-3-6-1 13-3 3v-7c0-2 3-7 1-6-5 5-3 14-8 19-5 6 0-7 0-8l1-2-5 10c2 13 29 6 36 2 3-1-4-4-5-4l-6-6c-2-3-6-10-6-14 0-2 5 0 6 1 2 1 5 5 5 3 0-5-11-6-11-11 0-2 4 1 6 1 9 1 17 5 24 9l1 1-4-7c-1-2 0-5 3-3 5 3 10 5 12 9 4 6 6 13 7 20 1 2-3 2-4 1-3-1-1-3-5-3-1 0 0 4-1 3-6-2-7-13-11-15-2-1 1 3 1 5l2 7c2 5-2-2-5-2l1 1-1 3c-3-3-4-7-6-10-11-15 5-34-5-6-1 3 4 6 2 7l-7 1h5c3 4 8 19 6 25-1 2-2 5-4 5l-3-2c-9 1-19 8-28 3l-5-5c-1-1 0 4-2 4-6 2-16-4-19-9-4-7 11-8 7-17-3-8-8 14-8 4 0-6 11-14 11-21l-2 1h-2c-3 2-4 6-6 9l-1 2c0-3 3-7 2-10h-2c-2 1-4 8-4 9l3 7-2-1h-4c-2 1-2 4-3 5l-4 5c-3 3 1 3 1 6 0 2-4 1-4 3l4 7c0 2-3 0-4-1s-5-6-5-8c2-6 7-7 4-15l-2 2-4 6-4 10-1 10v2l-1-10c-1-18-3 13-4 17 0 1 1 6-1 7-1 1-3 2-3 0-1-1 4-2 3-4s-4-2-6-3c0-1 2-2 1-3l-4-1c-5 2-3 10-4 15l-1-2v-10l2-13v-4c-7 9-6 22-10 32l-6 12-3 13c0 2-5 8-6 5-1-4 3-9 3-13 0-2-3-1-4-1l-1-1c-2 5 1 12-1 17-2 4-2-5-4-4-3 2-1 7-2 10-1 1-2 5-3 3l-1-11-1 4v14c0 2-3 7-5 6-1-2 2-4 3-6 1-5-1-10-2-14v-5l-7 26c1 5 6 11 1 17-13 16 19-48-4-9-3 5 1 13-4 17-1 1-1-3-2-2s-8 14-11 8c-1-2 2-1 2-1 0-8 1-18 4-27 2-6 6-3 6-5s-1-10 1-12c3-3 8-1 8-7 0-1-4-6-2-7 3-2 2 3 4 3s2-3 3-4c2-4 1-4 1-8l6-13 2-5c0-1 0-3 1-2 3 5 1 6 0 11v3l3-10c3-7 3-12 5-21l1-4c1-1 2 2 2 3 0 2-5 14-3 15l3-3c3-3 4-9 8-12 4-4 6-2 8-8 2-3 2-8 5-10 9-5 15-15 23-23v1l-3 6-1 4v2c5-2 17-17 20-21 3-3 3-13 6-10 4 3-7 14-9 17-1 1-1 3-3 3s5-6 3-6c-7 0-9 9-12 14-4 6 6-12 9-7 1 1-2 1-2 2v4l5-6 21-22c1-1 5 2 8 3zm108 0l-3 1 3-1zm-36 1c4 1 3 8 5 9l6 4c3 1 8-2 9 1v10l6 8c3 3-1 10 3 13l6 2c1 1-4 0-4 1l2 4c1 1 2 6 3 4 0-1-2-4 0-4 5 0 5 9 6 11l1 10c0 1 0 3 1 2l1-4 1 13v7c1 1 2 6 3 4s-1-14 2-16c2 0 3 3 5 4l1 1c-2 1-6-2-6 3 0 3 5 2 7 4l5 5 4 1-2 1 3 10 2 6 3 5c0-4-5-11-3-15s5 4 5 4c0 2-3-3-2-2 1 4 6 9 6 14a411 411 0 01-4 31c0-3 2-5 1-8 0-1-3 5-3 3l1-17-1 3-2 4c-2 3-8-11-9-12-2-1-1 5-1 5v-5c-1-2-6-1-6-3-2-5-1-11-3-16l-1 1c-1 1-6 3-7 0 0-1 3-1 2-2l-2-6-1-3c-5 2 6 22-3 7l-1-7-2-9c-1 6 1 13 1 19l-1 1c-7-6-3-27-4-32l-1 8-2 4-1 4c-4-2-1-9-3-13-1-2-1 5-2 4-2-2-3-4-1-6 2-3 8-6 2-10-1-1-2 4-2 3l-4-7c-1-2-4 3-5 2-2-3 2-7 0-10-4-7 1 7-2 4v-2-21c0-2 0-7-1-6l-2 17h-2l-2-12-5-22-5-6c-1-2-5-3-3-5s5 0 8 0zm208 7l-2 2c1-1 7-4 2-2zm-396 43c-1 4-7 5-9 8-1 2 5 4 4 6-2 7-6 13-10 20-3 7-9 14-13 20-2 4-8 16-8 11 0-6 4-10 7-15l3-7-10 13-6 6c-1-2 2-7 2-8 4-8 11-13 15-20 9-17 20-38 26-57 1-4 2 7-1 23zm367-26c-12 7-21 17-30 26-1 2-4 1-5 3l-7 15-1 7-1 2s-1-14 1-18l3-2c5-4 11-13 13-19l8-18c0-1 0-4 2-4s-1 3-1 4l-1 9-2 4h4c16-9 34-20 17-9zm-519 16c1 2 13 5 15 6l3 3c4 1 5-11 6-14 1-2 0-7 1-6 3 3 1 20 2 21 0 3 4 3 6 4 12 8 19 24 25 37 2 5 6 22 6 16-2-11-4-24-10-34l-10-14 5 4 9 8c1 2 2 8 4 6 3-2-1-6-1-10v-15l1-27c2 18 1 36 2 53 0 5 4 10 4 16v32c1 9 6 19 3 27s-11 12-18 17c-7 4-27 6-32 15-2 3-5 5-4 7 5 9 29 17 33 19 11 5 16 15 21 25h-3l-3-6c-3-5-7-9-12-13-6-6-17-12-25-14-2 0-11 0-13-3l-1-3c-2-2-2 6-2 4l3-25c1-8 6-16 7-25v-18 2l1 8 1 17-1 13c0 2-4 4-2 5h6c7-3 14-8 21-10 6-3 13-3 19-6 2-1 2-4 3-6v-4c-2 0-1 3-2 4-1 3-2-4-3-6-4-10-4-18-6-28-4-19-11-36-18-54 0 0-16-8-16-12 0-2 4 5 5 3 2-1-3-4-6-5-10-6-18-11-31-12l-18-3c-2-1 5-3 8-3 2 0 8 4 11 4s4-5 6 0zm-32-1c-1 2-7-3-5-3s7 2 5 3zm352 4l2 2-2-2zm90-3c2 1 4 16 5 17 3 8 9 15 12 22 1 3-4-3-5-5-19-35-13-34-12-34zm-9 23l-1 2c-2-1-2-4-4-6l-4-1c-2-4 3-10 3-10 2 1 5 11 6 15zm9-4l9 24c1 4 7 14 4 11l-7-13c-1-3-2-7-5-6-3 2 0 16 0 19 1 1 3 5 0 7-4 2-3-8-6-11 0-1-6 2-2-4 2-2 7 1 4-4-2-2-7-5-5-6h3c2-1-3-6-3-7l2 3 5-5c2-5-6-13-7-17-1-1 1-4 2-4 2 0 5 11 6 13zm-108 0c-4 2-20 5-23 5-2 0-5-2-7 0-1 1 3 2 4 3 8 13 12 18 15 31v4c0 1 3 4 1 4-9 0 2-14-7-14-4 0 1 8 1 12v10l-1-4-2-10c-1-4-3-13-9-15l2 3 1 5c1 5 3 6 2 13 0 2-5-3-6-1-1 3 1 5 1 8l-1 1s-3-9-6-8c-2 1 0 10 0 11l6 3 1 1h-9l-1-1c-3 1-1 4 0 5l1 1c-2-2-4-6-2-9l2-3-11-28v2l1 7c1 4 4 8 4 12 0 2-1-2-2-3l-4-4c0-2-5-8-6-13s1-10 1-15-5-14 0-14c6 0 6 9 9 14l6 20 3 9c1 1 0 5 1 4 2-1 1-4 0-5-2-10-10-23-10-33 0-16 14 14 17 16 2 0 1-3 0-5 0-3-3-5-6-7-6-9-15-13-22-22l7 4c7 2 15 4 23 4l33-3c4-1 13-2-7 5zm-59 0v27c1 6 3 11 3 17l-1 3c-3-5-3-12-5-18-6-19-1 5-1 8 0 1-2 2-1 5 0 3 3 6 1 9-1 1-1-3-1-5s-3-3-3-4c1-14 1-27 3-40 0-4 6-5 5-2zm-72 14l-1-1a362 362 0 011 1zm173-8l2 3-7-7c-2-2-7-4-6-6l11 10zm-108-8c1 1-1 2-1 4l-3 24c-1 4 0 16-2 12-2-7 5-41 6-40zm92 1c4 3 7 8 10 13h-3l-9-13-5-1h-2l9 1zm4 15c3 7 4 14 4 22l-1-4c-4-10-5-21-3-18zm-16-9l4 5c3 4 8 8 9 14 1 1 0 7-1 7-2 0-3-3-4-5-4-6-9-22-8-21zm6 23l1 11-1 5c0 1 0 4-1 3-2-1-2-3-2-5l-14-29-4-6s1-6 3-3c5 4 15 13 18 24zm-111-19c0 2-3 5-3 4 0-4 4-6 3-4zm-43 0c3 0-1 5-2 7v2l2-9zm129 9c2 3 1 9 5 9 6 0-5-10-7-15-1-1 0-3 1-3 9 7 14 19 18 28l1 7v2c-5-5-7-12-11-18v3l1 3c1 8 0 9-4 14-1 1-2 5-3 4-2-2-2-6-3-8-5-11-11-22-15-34 0-1 0-3 2-3 1 0 11 6 15 11zm47 10c0 2-2 4-3 4v-5c0-4 3 1 3 1zm-188 9l2-4 3-9c1-1 2-5 3-4 1 2-3 15-8 17zm273-11l2 3-2-3zm36 9l6-4c1 0-4 6-6 4zm-46 7l-3-5-1-2c4 0 5 8 4 7zm-75 0l2 4c-7-9-3-6-2-4zm-216 6c-2 1 1-3 1-4 1-3 2 3-1 4zm339 6l-1-3c0-2 3-1 1 3zm-344 3l-3 5c6-14 5-7 3-5zm1 8v-2c2-4 4-9 7-12 3-2-2 9-7 14zm6 2l-3 6 3-6zm355 8c6 5 7 15 12 21 5 5 10 9 10 16l-3-2-6-8-13-18-2-4 1-2c-2-2-6-3-8-6l-5-7-4-5-2-2c6 3 16 13 20 17zm-290-10l1 1-1-1zm212 41c0 2-2-2-3-3l-14-20c-4-6-9-12-12-19-1-3 21 26 29 42zm-35-40c1-1 3 2 4 4l3 3 11 14c1 1-1 2-1 3 0 9 12 14 16 22 2 2 2 5 3 8l1 4 1 1c-6-13-17-23-25-35-3-5-1-7-7-10h-3c1 6 8 11 11 16l2 3 1-3c0 3 5 13 6 15 6 10 19 17 19 30l-1-1-3-5c-2-3-3-7-6-10l-4-2c-6-8-10-17-16-24l-17-22s-7-7-6-10c1-1 2 2 3 3l8 6c1 1 2 2 3 1v-4c-1-2-4-5-3-7zm-250 7l-2 2c0-3 3-4 2-2zm65-2l-1 2-4 7c-1 0-3 6-5 6s0-4 1-5c2-4 7-9 9-10zm-25 6c-2 7-5-5-2-3 1 1 3 2 2 3zm56-2c2 0-1 1-2 2l-2 5-13 14-42 52 2-4 5-9c2-4 6-9 6-14 0-2-3 1-4 2l-3 7-6 6-4 6c6-11 16-31 24-39 4-4 6-12 10-14l4-3 4-1c-2 9-15 16-19 24l-4 10c0 1 1 5 3 4l3-6 2-3c-2 0-4 5-5 3-1-1 7-11 8-12l11-13v3l-3 2c2 2 5-3 6-5l4-2h-4c-3-3 3-5 4-6 4-4 13-8 15-9zm155 16c3 7 5 9 11 14 6 4 8 12 11 18l-1 2c-3 0-7-7-9-9-2-1-2-4-3-6l-10-10c-5-8-11-15-15-23-1 0 13 4 16 14zm31-9l3-6c0 2 1 6-3 6zm27 29c-1 1-1-2-2-4l-2-15c-1-4 0-9-2-11s-1 5-2 8l-4 14v-2l1-4c4-22 11 6 11 14zm-238-35c3 4-7 7-9 8l-2 1c0-3 6-2 7-3v-2c1-1 3 0 3-2 1-1-5 0-3-1l4-1zm155 13c10 13 23 24 32 37l8 9h-4l-5-5-14-16-6-7-4-5c0-1 0-2-1-1l-1 4c1 3 5 3 6 6 1 1 1 5 4 5l-2-4 12 16 11 15c2 3 15 7 6 11-4 2-5-6-7-9l-16-17c-15-19-31-26-31-46l2 2 2 5c2 2 7 13 12 12 1-1-1-3-1-5l-3-7zm31 24l4 8c-3 1-6-3-8-6-8-7-12-16-17-24-3-5-7-9-9-14 0-2 22 25 30 36zm-214-22c-1 0-2 3-3 2-1-2 7-5 3-2zm2 9c-1 1-2-3-1-5l2-3 4-1v-4c1 2 3 8-5 13zm7 2l2-3-6 10c-2-2 0-5 1-6 2-5 5-4 3-1zm-40 12l1 1-2 1-2-3v-19l3-4 1-1-1 25zm77-12l-37 51 2-4c-4 2-10 10-12 14-1 1-2 7-4 7s1-6 1-6l1-5c6-12 9-12 16-24 0-1-3-1-2-2 3-7 20-19 27-24 2-2-7 3-6 2 4-6 9-10 14-15 2-1 3 2 0 6zm134 14c1 3 7 4 8 6 1 1-2 1-1 2a323 323 0 0133 38l-6-7-9-11c-6-6-14-9-19-16l-22-28 1-3 15 19zm170 7c0 1 0 4-1 3-3-3 0-5 0-7-1-13 2-1 1 4zm-306 10l-12 13c-2 2-4 6-6 5s1-5 2-7c10-12 42-39 16-11zm6-21l-1 3a3474 3474 0 01-46 59c-1 3-1 7-3 9l-4 3c1-4 4-6 5-9 7-17 18-33 29-47l8-7 2-4c6-8 14-11 10-7zm-53-1c1 4 7-7 6-2 0 4-6 11-9 15l-6 8c-1 1-4 6-4 4 3-7 9-14 12-22 1-1 2-4 0-4-1-1-1 2-2 3l-5 2 2-2c3-4 5-7 6-2zm162-1c2 1 4 4 3 5s-6-9-6-9c-1-1-4-5-2-4l5 8zm52 51l-16-15-28-26c-2-1 0 3 1 4 0 2 2 3 1 5l-2-3c-3-3-4-7-4-11l2 4c3-6-5-11-7-17 0-3 37 39 53 59zm-137-45l-37 42c-1 1-4 0-5 2v3c-2 1-4-4-5-2 0 2 3 5 1 7l-2-1c-1-1-4 0-5-2l7-8c17-18 48-43 46-41zm-111 4c-1 0-3-12-1-10 1 1 5 8 1 10zm23-5c-3 3 1-5 1-3l-1 3zm76 45c-3 2 4-5 6-8 4-5 20-27 28-32 4-2-31 37-34 40zm97-31l2 5c-3-4-5-9-6-13v-4l4 12zm-102 14l-4 5-3 3c7-11 15-22 26-30l-19 22zm52-20c-1 2-28 40-40 46-3 1 3-6 5-8l6-7 6-6 13-17 3-1 7-7zm46 8c1 2 4 8 1 8l-5-13v9c-2-2-3-6-3-10-1-1 1-3 2-2l5 8zm75 3c1 3 4 4 6 6 0 0 8 13 7 15-1 1-2-1-3-2l-4-8-13-17c-2-2-9-1-5-6 1-2 9 6 12 12zm-138 21c-3 4-3 8-9 8l1-3 8-8 4-6c3-3 4-1-4 9zm9-3c-2 2-4 7-7 7s2-5 4-7l4-7c3-3 7 0-1 7zm78-1c3 4 8 6 8 12 0 2-2-2-3-3l-5-7-15-19c-1-1-3-6-1-5 3 0 10 15 16 22zm64-11v3c-4-1-2-7 0-3zm-43 15c2 3 8 6 6 10-1 3-5-1-7-3-6-5-28-30-28-31 2-8 20 16 29 24zm148-23c-14 9-28 9-38 22l-3 6c-2 2-6 3-7 5-1 1 2 3 1 4l-3 8-4 3-15 28-25 40c-2 2-2 5-4 6-2 0-2-3-2-5-1-4 1-13 4-17l4-2c6 2-3 6 2 5h4c1-1-2-3-1-4 3-9 10-17 15-25 6-10 9-22 17-31l2 2v-6l5-2c6-15 12-25 27-30l11-5 1-2c3-1 11-2 9 0zm-273 23l-7 5a437 437 0 017-5zm96-4l5 3c3 5 2 10 7 14l7 5 3 6c1 0 10 0 5 2-6 2-12-5-15-9-5-7-21-24-21-37 0 0 5 12 9 16zm-19-13l2 2c0 1-2 5-2-2zm-4 30c1 6 4 12 8 18v-4l-6-17-1-3 28 49 21 26h-2l-12-15-25-32c0-1-2-5-2-3 0 12 14 26 22 35 7 10 21 18 21 29 0 3-5-4-7-6l-29-38c-11-18-17-32-21-50-1-5 2 2 5 11zm22-8c9 12 21 23 31 34l17 21v2l-3-2-23-22c-2-1 2 4 3 6l7 10 4 2v4l-8-7c-16-16-35-47-44-62l4 5 5 9 10 17 3 1 5 8 6 5 5 1c-4-5-11-8-15-13l-8-15c-11-22-3-10 1-4zm-53-16c0 2-2 3-3 5-1 4 1 8-1 12-2 3-7 0-7 6l3-2c0 4-5 9-7 10-1 2-4 1-6 3v4l-14 14c-2 1 7-4 5-6-1-1-3 1-4 2l-8 11a1002 1002 0 01-38 33c16-22 38-41 57-61l14-15c5-6 9-17 9-16zm-197 33c9 20 24 41 27 63 3 23 23 41 34 63 1 3-5-5-7-8-6-8-14-15-19-23-8-10-19-29-25-41-2-3-3-16-6-19l-4-1c0-1-2-11-1-12l2 2 5 12c4 9 8 20 13 28 3 6 7 15 11 20l3 3 2 1c-6-17-17-33-23-49l-10-27-12-32-3-9v-3l13 32zm235-16l1 3c-3 0-2-6-1-3zm81 10l-3-2-4-7c-2-3-5-9-2-9 4 0 8 14 9 18zm-128-16c0 2-2 3-3 5l-12 13c-7 7-14 15-22 21-1 2-4 2-6 4-7 6-12 14-19 21l3-2 2-4 23-25c10-12 34-34 34-33zm-100 26c-2 4-4 9-7 12l-5 4c26-48 16-24 12-16zm93 11c-10 11-22 20-32 30-1 1 0 4 1 4 16-15 63-60 47-46-24 19-44 41-66 61-32 31 29-24 16-15-8 4-15 10-20 17l4-1c-2 4-6 6-8 8l-15 11-2 4c2-7 3-8 7-13l19-27c16-26 42-44 65-64 13-12-24 32-15 22l17-20c8-10-9 19-18 29zm181-20c-4 10-6 20-11 29 0 1-5 12-7 11l5-12c5-13 9-26 16-38l4-5-7 15zm-201 3l-42 41h-1l17-20c1-2 9-8 9-12l-3 4c-3 2-11 7-11 3 0-9 15-12 23-19 2-2 6-10 7-7 1 4-4 7-6 10s-11 7-7 7c2 0 17-17 17-17 3-2 2 6-3 10zm143 13c-5-4-15-18-17-21h4c1 1 16 23 13 21zm-3-17l-3-3 3 3zm-206 15l-13 29-1-2 7-16c12-42-5 13-5 4l5-9c6-11 9-11 7-6zm324-12c0 2-2-2-2-3s2 0 2 3zm-162 23c4 5 18 20 21 26 1 3-4-3-6-5-2-1-3-3-5-3-3-2-2-6-3-6 0-2-3-1-4-2-3-3-4-7-6-10-1-1-10-13-7-13 2 0 7 8 10 13zm-262-8c2 2 4 8 1 8s-5-5-6-8c0-2 4-1 5 0zm23 86c12 16 28 30 43 44l8 7h-3l-6-4-22-18c-17-17-31-40-40-62-6-11-12-22-16-34a229 229 0 01-5-19c2 3 22 61 41 86zm-50-73c-1 5-2-14 0-8v8zm180-2l-3 2c4-7 4-3 3-2zm-121 9c-2-2-2-5-3-8-1-1-3-5-1-4 0 0 6 14 4 12zm358 3c-2 8-11 15-12 23l-4 50c-1 7-1 20-4 27-1 0-1-4-2-3 0 2 0 6 2 8 2 4 11-13 14-13 2 0-1 3-1 4l-5 6c-3 4-15 21-18 20-6-2 0-16 1-21l10-52c1-7 5-20 3-26 0-2-2 2-3 4l-4 6-8 29-5 15-2 4c-1 4 1 16-3 21l-14 18 2-5c3-5 5-10 6-17 3-10 9-18 6-30l-1 4-5 9-2 2c-1-4 3-11 5-14l1-1c1-1 4-2 2-3-4-2-11 11-13 13l-1 4c-2 0 1-6 1-6l6-12 11-14c8-10 15-23 23-34l9-16 7-9-2 9zm-199 4c0 2-3 4-5 5-8 8-16 16-25 22-1 1-2-2-1-3 9-9 31-26 31-24zm-151 16l-2-3-2-7 4 10zm305-11l-3 2c1-3 4-4 3-2zm-221 40l1-1 9-8 9-9 10-6 5-6 4-1h-3c1-3 6-3 9-5l12-8c2-1-36 30-56 44zm39-10c0 1-7 2-5 6l2-1-19 14h-3l2 4 1 1-4-1c-3 0-4 6-6 9l-14 21 1-1 29-29 15-8c1-1-1-1-1-1 1-3 11-7 8-5-5 6-13 10-19 16-15 18-27 37-41 56l-2-2 8-22v-8l-2-1-2 7-11 21c-1 2 0 6-2 6s0-4 0-6c1-7 5-19 11-26l44-46c2-3 5-4 6-7h-4l-15 12c-11 11-19 23-30 33-2 1-1-4 0-6 4-7 9-13 14-18l26-23c5-5 9 0 13 0s5-4 8-6l15-12c8-7-11 14-23 23zm86-24c7 6 12 13 18 20 11 12 19 23 28 37l8 17 3 9c1 1 0 2-1 2-8-9-9-21-15-31l-13-19-3 2c-4-8-8-13-14-19-3-3-5-8-10-9-3-1 3 5 5 7l37 54 3 1c0 1-2 2-3 1l-11-15c-4-7-16-26-25-35-3-3-8-24-7-22zm-192 41l9 18c1 2 3 3 3 5 1 1 0 3-1 3-9-9-18-34-22-45-2-4-8-9-5-13 1-2 12 21 16 32zm-77-16c5-7 4 18 6 27l4 14c8 31 7 44 40 69 2 1 4-5 4-8 0-4-3-8-4-11l-8-28-4-17c-2-14-12-28-14-43l2 5c3 5 8 8 11 14 8 14 11 32 17 48 12 34 9 38 47 71 3 2-3-9 0-9 4 0 1 6 3 9 2 5 10 5 14 9h-2l-10-4c-23-13-49-25-69-43-16-14-26-33-38-49-5-6-13-18-13-26l1 1 2 4 7 11c2 2 4 6 5 4 2-3-2-6-2-10-1-12-6-27 1-38zm241 14c-1 2 2 5 1 6-3 5-8 13-13 11-2-1-5-2-6-4-2-4 0-8 0-12 0-2 0-16 3-19s8-1 9-1l1-2c1-1 7 14 5 21zm72-16l2 2-2-2zm-290 0c5 2-6 2-4 1l4-1zm296 8l1 1-1-1zm0 10c1 1 3 6 1 4-9-9-2-6-1-4zm104 9c-1 2-2 7-4 6-2-3 5-8 4-6zm-399 42c1 5 5 11 2 16-2 4-5-8-7-12l-1-4-4-20c-4-23 8 13 10 20zm144-39c4 0-5 5-7 8l-11 12-8 16c-1 1-3 0-3-1 8-13 25-35 29-35zm6 5c-2 0-4-4-2-4l2 4zm145 49l1 5 2 3c-4 1-7-19-11-23v3c-2 2-5-11-5-12-1-7-16-19-20-27l2 1c4 3 22 27 31 50zm78-27l1-2 3-5 14-13c1-1 2-3 3-2 1 0-12 15-21 22zm-408 34c8 2 12 11 17 17h-2c-5-3-9-8-15-10-2 0-2-8 0-7zm178-50c1 2-3 3-4 4l-3 5-10 13v-3c5-7 16-20 17-19zm-111 18c0 2 2 7 0 6v-6zm152 11c8 3 24-13 30-3 6 8 7 20 5 29-3 13-26 1-29 0-6-3 2-17-4-22-24-20-12-8-2-4zm143-3c0 2-1 6-2 5l2-5zm-89 15l1-3 11-4 5-3c1-2-5-1-5-2 2-1-5 10-12 12zm-200-15l1 1c1 2-2 2-1-1zm17 5l1 2c-2 0-6-5-5-5l4 3zm276 1l-1 1c2-6 2-2 1-1zm-2 6l-2 1c2-5 2-2 2-1zm-34 23c1 1 4 2 4 4l-4-2c-12-22-4-9 0-2zm54-9l1-2c1-2 2 2-1 2zm-160 30l-1 2 4-14-3 12z"/>
</svg>