<svg xmlns="http://www.w3.org/2000/svg" version="1.0" viewBox="0 0 1280 1280">
  <defs/>
  <circle cx="640" cy="640" r="640" fill="#fff"/>
  <path fill="none" stroke="#000" stroke-linecap="round" stroke-width="45" d="M941 851a407 407 0 00-195-684C430 88 146 369 233 674c19 67 110 191 180 217m472 12l50-45s276 233 269 238m-151-154l165 140-25 32-158-150"/>
  <path d="M908 951c4-20 4-30-3-37-3-4-11-10-18-13-10-4-11-6-6-9 14-8 1-28-13-19-7 4-10 2-25-14-19-20-22-34-4-19 5 5 9 11 8 13-2 3-1 3 1 2 3-2 8 0 13 6 3 5 8 8 9 7 2-2-7-12-58-63-11-11-20-22-20-26s9 3 24 18l51 51c24 21 29 24 35 21 4-3 8-7 8-9 0-1-12-14-26-27-34-32-31-29-58-52-25-22-29-32-4-12l54 47c32 29 40 35 46 32 9-5 9-11 0-18l-88-76c-5-5-8-10-7-11 2-2 92 69 96 77 3 4 13 5 20 0 9-6 0-17-27-37l-38-28-26-20c-8-5-15-11-15-14 0-4 43 23 85 54 22 17 39 20 42 10 4-11-1-18-19-27-24-11-89-49-94-54-9-8 8-2 43 17l57 29 21 9 7-10c6-8 6-9 1-16-4-4-10-8-13-8s-16-3-27-8l-54-22c-19-7-33-14-33-15 0-4 14 0 77 21 39 13 54 16 59 14 8-7 9-12 2-20s-17-9-15-2c1 3 1 8-1 11-4 7-35-3-47-16-8-8-8-9-1-7 4 2 15 4 24 5 27 4 7-4-43-16-51-13-56-15-47-17 4-1 23 2 43 7s38 7 39 6 0-2-3-2-2-2 2-7c8-9 49-4 47 6-1 6-6 7-20 6-15-1-18 0-11 3 4 2 16 4 27 5 17 1 18 1 18-11 0-15-3-16-74-25-73-9-84-15-21-11l76 3c24 0 26-1 27-9 1-5-1-10-3-11-3-1-36-3-73-4-37-2-71-5-76-7-8-3-8-3-1-4l78-1c71 0 80-1 80-15 0-8-12-22-16-18s-133 12-135 9c-3-6 16-10 52-13 39-3 83-10 88-13 4-3 5-21 1-24-2-1-32 4-68 10-35 6-65 11-66 10-3-4 5-10 15-10 6 0 21-3 33-7s30-8 40-8c10-2 17-4 16-6s-4-3-6-1c-2 1-11 0-19-1-20-3-13-9 17-12 21-3 26 0 17 9-4 4-2 5 5 5 6 0 11-3 12-6 3-7-3-22-8-22l-56 14-60 16c-3 1-6 0-6-2 0-4 36-17 86-29 34-9 35-10 35-20 0-6-1-13-3-14s-31 8-65 20-61 20-61 19c0-4 34-20 88-42 30-12 34-16 25-30-5-7-7-7-35 8-88 45-96 45-21 0 44-26 48-30 43-44-3-10-12-8-31 7-31 24-84 60-84 56 0-2 21-20 47-41s48-41 49-44 0-8-3-12c-7-6-13-8-13-2a252 252 0 00-38 34c-25 24-57 50-60 47-1-1 4-9 12-16a991 991 0 0073-71c10-9 11-12 8-19-1-4-6-7-10-7s-28 22-53 49c-63 67-68 58-6-10 45-50 51-60 37-66-9-4-15 2-54 52-34 42-46 54-46 46l11-15c32-39 60-76 67-86 6-11 6-13 1-18-9-9-19-4-30 14-26 41-61 91-61 86 0-4 27-47 60-98 11-16 11-22 0-29-10-5-9-6-45 63-15 29-28 52-29 50-1 0 11-27 28-59 22-45 28-60 26-65-6-10-16-8-23 4l-28 61c-21 48-29 54-10 7 36-85 38-95 21-92-8 1-11 8-22 40-26 80-29 87-30 83-1-3 0-11 3-18 29-108 31-116 20-120-11-5-15 6-28 69-13 65-13 67-17 63-3-3 3-42 14-98 6-37 5-44-9-44-7 0-8 2-17 79-5 36-8 54-12 55-4 2-5-5-2-32l6-59c6-41 6-41-4-46-6-3-11-4-13-2-3 3-10 91-10 124 0 7-2 12-4 12s-4-25-4-68c0-54-1-68-6-72-4-3-6-4-11 0-4 4-5 18-3 73 2 44 1 67-2 65-3-5-10-53-14-100-2-31-3-34-16-34-11 0-11 0-1 66l6 49 2 23-6-23c-3-12-9-40-12-61-6-41-9-49-20-49-9 0-16 9-12 14 7 8 36 121 31 121-2 0-5-6-7-14l-35-101c-4-8-21-11-25-4-1 2 5 17 12 33 23 52 39 94 35 94-2 0-16-27-30-60-24-53-28-59-36-59-13 0-12 7 2 33 25 46 46 95 42 99-2 3-7-2-13-14l-29-56c-24-43-31-51-40-41-6 7-6 8 2 20 23 36 61 101 61 104 0 2-2 3-3 3-3 0-20-25-55-82-10-16-20-29-23-29-6 0-18 8-18 13 0 3 16 25 35 50 45 58 46 59 44 62-1 2-16-15-32-36-49-61-52-64-59-64-4 0-9 3-11 8s-3 8 0 8 43 44 70 77c33 43 12 30-35-21-28-31-50-51-53-50-15 6-9 16 39 64 26 27 47 51 47 54 0 4-62-52-85-77-13-14-17-17-24-14-15 6-9 17 22 42 17 13 37 29 43 36l22 19c5 5 8 10 7 11-2 2-14-6-27-17l-54-41c-24-17-32-20-37-17-13 7-8 18 15 34l29 21c19 10 59 40 58 41s-12-4-26-13l-25-14-33-19c-26-16-31-18-39-14-18 9-10 16 48 46 57 29 76 43 37 27-28-11-43-18-70-33-19-11-25-12-30-9-9 6-10 23-1 25 21 3 112 42 100 43-4 0-61-18-99-31-16-5-17-5-19 4-3 11 1 24 5 21 2-1 21 3 42 10a850 850 0 0064 19c-2 2-98-15-106-20-7-4-19 6-17 17 1 5 13 8 64 15a1889 1889 0 0071 12c-1 1-31-1-66-4-68-7-75-5-73 11 1 8 5 9 32 12l69 3c29 1 39 3 39 7s-13 5-69 3c-65-1-68-1-72 7-7 14-1 24 13 22 20-3 140-6 139-4-2 2-64 11-118 16-13 2-27 5-29 7-6 5-6 23-1 26 3 3 39-4 104-18 42-9 44-10 44-5 0 1-7 5-16 7-67 18-123 36-127 40-6 6-3 18 5 21 3 1 9 0 14-2l60-21c28-9 52-19 54-21 2-3 3-2 3 2 0 5-7 9-20 15-24 9-75 27-94 32-15 4-20 17-10 26 5 4 10 3 29-5 64-29 96-40 99-37 4 4-45 28-91 44-25 9-31 12-31 19 0 4 4 10 9 12 12 5 14-8 23-8 13 0 50-20 50-22s-11 7-16 7c-21 4-46 12-47 9 0-2 9-8 21-14 26-11 26-11 22-4-3 5 12 8 30-1 35-18 37-18 37-13 0 2-11 10-24 17l-32 20c-7 7-56 31-48 35 5 4 0-6 0 5 0 19 61 16 63-1 1-6 4-12 7-13 5-2 5-1 0 5-5 7-5 7 3 5 10-4-42 44-37 56 2 5 71-27 76-21 10 13-46 43-58 39-8-2 46-19 52-11 7 8 8 22 5 46 0 5-2 10-4 9-1-1-5 2-9 6-9 12 14 8 17-4 8-27-69 23-70 25s-1 3 1 3c1-1 7 2 12 6 7 5 8 8 4 14l-11 30-7 23 1-22c0-11 3-24 6-28 5-6 4-7-10-4-13 2-1-20 6-20 8 0-27 31-27 38 0 3-5 13-11 22-11 14-14 16-29 16-9 0-17 1-17 4 0 2-7 2-5 4 44 29-129 91 466 107 11 0 146-23 145-28-3-14 112-58 93-69-11-6-21-9-32-7-13 0-18-1-26-10-8-8-9-12-6-18l7-8c5 0 1-4-12-4-5 0-6-3-4-16zM608 224c1 35-3 29-8-12-2-19-2-24 2-22 4 1 6 11 6 34zm38-20l-2 24c0 7-1 7-4 2-2-4-4-14-4-24 0-13 1-17 6-17s6 3 4 15zm36 8c-2 10-6 21-10 25-6 7-6 7-4-3l2-28c0-14 1-16 7-14 6 1 7 4 5 20zm-103-7l2 20c4 20-4 15-9-5-6-23-6-23 1-23 3 0 6 3 6 8zm136 3c0 7-1 15-3 19-2 8-3 8-5 1-3-8 1-31 5-31 2 0 4 5 3 11zm-169 27c-1 2-5-2-9-10-5-10-6-15-3-17 6-3 16 20 12 27zm202-11c-1 9-4 18-7 20-2 2-7 11-9 18l-4 15 1-15c5-32 11-53 16-53s5 4 3 15zm-231 12c5 10 7 18 5 18s-7-6-10-14c-4-8-8-14-10-14s-2-2-1-5c4-7 8-4 16 15zm263-12c0 6-11 30-14 30-6 0-6-1 1-18 3-8 7-15 9-15s4 1 4 3zm-295 25c11 18 13 22 6 22s-23-27-20-33 3-6 14 11zm322-5c0 6-14 25-16 23-1-2 0-9 3-16 5-13 13-18 13-7zm-347 27c13 23 6 30-10 10-9-12-11-17-8-21 7-8 6-8 18 11zm370-11c0 7-20 40-29 48-5 4-4-1 3-13l15-30c4-12 11-15 11-5zm23 31c-11 16-24 30-26 27-1-1 1-6 4-11l15-23c5-8 9-11 11-8 1 2-1 9-4 15zm-412 15c-4 4-26-21-26-28 0-3 7 2 15 10 7 8 12 17 11 18zm175-2c-1 3-2 2-2-2-1-5 0-7 1-6 2 2 2 5 1 8zm106 8c-1 3-2 1-2-5 0-5 1-7 2-5v10zm163-4c-2 2-4 2-7 1-2-2-3-1-1 1 1 2-3 10-9 16l-12 9c0-3-2-2-5 1-11 10-6 0 10-18 9-11 17-17 20-16s5 4 4 6zm-465 25c-5 6-13-1-11-7 2-4 0-5-3-4-6 3-15-9-11-15 1-3 7 0 15 9 8 8 12 15 10 17zm158-15c-1 1-3-1-4-5-3-6-2-6 1-3s4 7 3 8zm-23 8c-1 1-3-1-4-5-2-6-2-6 2-2 2 2 3 6 2 7zm149 4c37 14 55 27 78 52 15 18 23 32 14 26-3-1-3 0-2 4 1 3 4 5 5 4 2-1 5 1 6 5 2 6 1 5-8-1l-24-18c-7-6-23-16-34-22l-32-20c-21-16-51-31-62-30-14 1-26 8-48 28-9 9-20 17-24 17-3 1-9 4-12 7-4 4-14 9-22 12s-17 7-19 10c-2 2-8 4-13 5-12 1-9-9 11-32 23-26 37-35 69-47 40-14 81-14 117 0zm202-2c0 7-2 10-5 9-2 0-2 0-1 2 2 5-15 23-18 19-2-1-7 2-13 7l-10 10 7-10c11-15 34-40 37-41 2 0 3 2 3 4zm-515 13c9 8 12 14 10 17-5 4-30-17-31-25 0-8 6-6 21 8zm533 26c-2 4-6 6-9 6s-5 2-3 4c2 4-3 8-15 10-6 2-4-1 9-14 16-15 28-19 18-6zm-564 1c-1 2 1 4 5 3 3 0 7 4 9 9 3 9 3 9-9 2-7-4-12-9-11-11s-1-5-4-7c-3-3-3-3 3-2 4 1 7 3 7 6zm295 15c0 4-2 6-4 6s-3-2-1-6l3-6 2 6zm298 8c2 6-25 26-36 26-3 0-9 1-13 3-11 5-4-2 21-20 23-17 25-17 28-9zm-609 16c1-1 6 0 12 1 5 1 10 4 9 5-2 1-1 5 2 8 3 4 2 5-6 2-14-6-36-21-30-21 3 0 4-3 3-6l4 4 6 7zm273 5c0 6-2 10-3 10-2 0-3-4-2-10l3-10c1 0 2 4 2 10zm66 2c-7 15-11 14-7-2 1-5 5-10 8-10 4 0 4 2-1 12zm186-2c-3 3-8 6-10 6-3 0-1-3 3-6l11-6c2 0 1 3-4 6zm-295 7c-1 3-2 2-2-3-1-4 0-7 2-5v8zm62 3c0 4 2 9 4 10 4 3 5 11 1 11-3 0-13-20-13-26 0-1 2-3 4-3s4 4 4 8zm96 4c-2 9 5 12 8 3 1-2 2-1 2 4 0 10-5 12-14 6-4-3-5-5-1-12 5-11 8-11 5-1zm235 0c0 8-24 21-39 21-11 0-6-6 16-19 21-12 23-12 23-2zm-640 6c0 4-3 7-6 7-4 0-4-2-1-7l6-6 1 6zm336 4c-5 5-10 1-6-5 1-3 4-4 6-2 3 1 3 4 0 7zm226-2c-1 3-4 5-6 5-3 0-3-2-2-5 1-2 4-4 6-4s3 2 2 4zm-551 5c1 2 0 4-2 4s-4-2-4-4l1-5 5 5zm369 27l15 5c3 0 6 3 7 6 2 4 5 6 9 5 4-2 8 1 10 7 2 4 7 9 11 9 13 2 21 16 23 37 1 15 1 17-1 10l-4-10v11c0 8 1 11 6 11 3 0 4 2 3 4-1 3-4 4-5 3-2-1-3 4-3 12l-1 14-14-9c-12-7-16-8-54-4l-41 3-1 16c-1 9-3 19-6 22-3 5-3 6 1 8 2 1 4 4 4 8 0 8 6 6 25-8 9-7 18-12 19-11 1 2-6 8-15 14-12 7-17 13-16 18 1 9 12 9 12-1 0-12 10-16 15-6 6 14 26 15 35 1l6-10 9 9 9 9 8-9c4-4 6-12 5-17 0-5 1-8 3-8s3 3 2 6c-2 5-1 6 3 5 4-2 7 1 8 6 5 16 2 74-4 87a497 497 0 00-18 39c-5 0-6 18-3 38 2 18 1 22-8 37-13 20-66 79-81 89-16 10-66 9-85-1-13-8-39-36-64-72-14-18-17-26-16-37 1-7 0-11-2-10-3 1-3-1-1-5 6-17 7-21 3-15-3 5-4 3-3-5 0-5 2-9 3-8 2 1 3 0 3-3s-5-10-12-17c-7-6-11-13-10-14a417 417 0 01-5-117c4-4 4-4 4 1 0 9 20 32 22 25 1-3 5-7 9-9 5-3 9-2 16 6 6 6 13 11 16 11 8 0 21-12 21-19 0-4 2-5 6-4 3 2 5 7 5 13 0 7 2 10 7 9 8-2 11-16 4-20-4-3-3-4 2-4 3 0 6 2 6 4s3 4 5 4c7 0 6-17 0-26-3-3-4-9-3-14 4-12-2-16-39-20-41-6-57-2-71 16-8 10-10 11-10 4 0-4 2-9 3-10 2-2 2-13 2-25-1-24 6-43 19-53l22-19c7-7 15-13 18-13 2 0 7-4 10-9 4-5 6-7 6-5 0 3 2 2 4-2 2-3 5-4 8-2s8 3 12 3c11-2 19 6 24 20 4 14 17 22 17 10 0-6 1-6 8-2s9 3 14-3l5-10c0-2 6-6 13-9 7-4 14-9 16-12 2-4 3-4 4 1 0 3 6 9 11 11zm273-3c3 5-4 9-28 15-31 8-38 1-10-10 26-9 35-11 38-5zm-101 2l-8 6c-9 5-9 4-2-1 8-7 10-8 10-5zm-553 10c1 2-1 3-6 2-8-3-9-6-2-6 3 0 7 2 8 4zm1 31c6 6 6 6-5 6-14 0-28-4-28-8 0-6 25-4 33 2zm6 29c7 5-3 10-20 10-23 0-31-3-31-11 0-5 5-6 24-4l27 5zm660 3c3 5 2 7-8 8-7 1-17 0-21-2-9-4-9-5-2-8 11-4 26-4 31 2zm-663 38c6 5 3 6-21 6-21 0-27-1-27-6s5-6 22-6c13 0 23 2 26 6zm668 6c2 7 0 8-16 8-10 0-23-2-29-5l-10-5 9-3 26-2c15-1 18 0 20 7zm-206 16c-3 13-4 13-6-1 0-4 7-16 8-13l-2 14zm-213-1c12 3 26 11 31 16 10 12 4 13-10 1-9-7-14-8-44-7-24 1-34 0-36-3-2-6 14-13 28-13 5-1 20 2 31 6zm176-2c11 12 7 16-17 15-13 0-29-2-36-4-9-2-10-3-4-6 22-9 50-12 57-5zm-420 20c-2 5-30 15-46 16-8 0-9-14-2-18l27-2c16 0 22 1 21 4zm248 0c0 2-4 4-8 4s-7-2-7-4c0-3 3-4 7-4s8 1 8 4zm269 9c4 9 3 16-2 42-3 17-10 38-15 46l-9 17c0 6-16 25-21 25-4 0-6-5-6-19 0-10 2-18 5-18 1 0 3-2 1-4-1-2 2-2 6-1 5 1 9-2 15-12 4-8 8-12 8-9 0 5-14 26-21 31-3 2-3 3 0 3 6 0 19-17 24-30 2-6 4-24 4-39 0-19 2-29 5-31h-5c-5 2-13 7-18 12-11 10-7 0 7-15 11-13 15-13 22 2zm-412-6c5 3 17 24 17 28l-8-8c-5-7-11-11-18-11-5 0-8 2-5 3s4 6 2 12c-1 6 0 17 2 25l8 32c4 17 17 34 25 34 1 0 1-2-3-5-8-7-18-24-18-31 0-4 3 0 7 7 4 9 9 14 16 16 10 2 19 15 19 28 0 9-17 4-32-9a73 73 0 01-25-47c0-6-3-19-6-28-9-29 3-59 19-46zm552 2c7 6 7 7-4 9-13 4-32 0-39-8-5-6-4-6 15-6 11 0 24 2 28 5zm-421 15c-1 3-6 7-13 8-6 0-9 0-8-3 1-2 0-5-2-6-3-1-4-3-2-5s5-1 7 3c5 10 12 9 9-1-2-6-1-7 4-6 3 2 5 6 5 10zm163 1c-1 7-4 10-11 11-9 1-11-1-11-8 0-8 1-8 5-5 4 6 11 7 10 2-1-6 0-9 4-9 3 0 4 4 3 9zm-285 27l-5 19v-9c0-10 0-18-2-19-2-2-3-5-1-9 4-11 12 7 8 18zm-105-7c-2 2-22 9-46 15-14 3-8-8 8-14 13-5 43-6 38-1zm13 28l-28 13c-17 6-25 7-30 4-6-3-6-4 4-6 7-2 17-5 23-9 13-6 36-8 31-2zm114 10c0 6 0 11-2 11-5 0-12-16-10-21 4-7 11-2 12 10zm341-2c-3 11-9 12-7 1l2-10c0-2 2-2 3-1 2 1 3 6 2 10zm148 38c12 5 13 11 5 14s-49-17-50-24c-1-5 1-5 17 0l28 10zm-530-4c-6 6-49 36-50 36-7 0-1-12 6-15 5-1 16-7 26-14 9-6 18-11 18-9v2zm415 14c3 3 3 6 1 6s-6-3-9-6c-2-4-3-7 0-7 2 0 5 3 8 7zm-413 16c-8 7-17 14-20 14-7 0-4-3 17-19 20-16 21-14 3 5zm468-14c1 2 0 2-3 1-7-3-8-5-3-5 2 0 5 1 6 4zm-524 2c-1 1-4 2-7 0-3-1-2-2 2-2 5 0 7 1 5 2zm567 20c2 2-4 14-7 14-5 0-26-21-24-24 1-3 26 4 31 10zm-486-3c-5 11-26 36-27 33-10-16-10-19-4-17 4 1 12-3 18-10 13-14 19-17 13-6zm23 3l-18 28c-13 18-18 23-19 18-1-4 6-16 15-27 15-18 22-24 22-19zm450 42c-3 7-4 7-25-9-27-22-24-30 4-12 15 10 22 16 21 21zm-449 10c-10 21-38 55-41 51-2-2 49-76 51-74l-10 23zm413-2c5 5 11 10 13 10 1 0 2 1 1 4-4 7-9 5-26-13-13-14-15-16-7-14 5 2 14 7 19 13zm-63 46c-3 3-43-44-43-50 0-3 10 7 22 22 13 14 22 27 21 28zm44-28c11 9 14 14 11 17-5 3-19-7-33-23-9-10-9-10-1-9 4 1 15 8 23 15zm-426 3c4-4 4-3-1 6-7 12-12 15-8 5 1-3 0-6-2-6s-3-2-1-5c2-4 3-4 4 0s3 4 8 0zm54 1c0 2-2 4-4 4s-3-2-2-4c1-3 3-4 4-4s2 1 2 4zm304 26c18 7 57 33 57 38l-6 1c-3 0-5-1-3-4 1-2-2-5-8-6-5-2-10-5-11-8-2-7-11-9-9-3 1 3-1 4-3 5-2 0-4-2-4-5s-5-5-12-5c-6 0-11-1-10-3s-4-3-12-1c-12 1-13 1-13-11 0-11 1-12 7-10l27 12zm-301-5c-1 3-6 6-11 7-9 0-9 0-2-6 9-7 15-8 13-1zm-26 12c0 2-1 4-4 4-2 0-4-2-4-4 0-3 2-5 4-5 3 0 4 2 4 5zm-11 1c0 2-30 19-33 19s7-9 16-15c7-5 17-7 17-4zm67 12l12 20c2 7 6 12 8 12 7 0 12 20 7 27-3 4-3 5 0 5s5 4 4 7c-1 15 1 21 8 30 4 5 7 12 5 14-1 3 0 2 3-1 4-3 4-6 0-9-5-7-6-34 0-30 4 3 5-2 0-11s0-14 6-5c5 7 5 7 5 0s7-7 29 1c10 4 61-3 74-10 6-3 15-11 21-17 5-5 11-9 13-7 2 1 3-1 1-4-1-4 0-7 2-7 3 0 3-2 2-5-3-9 8-11 13-3 3 5 3 8 1 8-4 0-3 15 1 19 4 5 3 18-1 18-2 0-4 5-4 10 0 6 2 11 4 11s3-3 1-7c-1-3 0-6 2-6 3 0 5 5 5 11s-3 10-6 10c-7 0-8 11-2 20 3 5 4 5 4 1 0-9 3-4 7 11 3 12 3 13-19 29l-24 17-22 10c-16 7-28 10-51 10-26 1-34 0-58-12-16-7-37-18-46-24l-18-13 2-25c2-30 2-25 0-77-1-20-1-37 1-37l10 9zM356 982c-2 41-14-9-6-27l6-9v36zm51-21c17 19 30 51 21 51-2 0-7-7-11-16-6-15-21-34-21-27l12 27c15 33 14 34-4 3-9-14-18-27-20-28-2-2-2-4 1-6 2-1 4-5 4-7s-2-3-4-1c-4 3-5-4-1-8 4-5 9-3 23 12zm351 10c0 2-2 4-5 4-2 0-2-2-1-4l4-4 2 4zm-244 33l-1 4-4-4c-2-3-1-4 1-4s4 1 4 4zm-236 9c-2 3 9 19 12 17 2-1 3 1 2 4l-4 7c-3 0-16-27-14-30 1-2 2-3 3-2s2 3 1 4zm87 18c-1 4-2 1-2-7s1-11 2-7v14zm62 6c0 2-2 3-4 2l-4-7c0-2 2-3 4-2l4 7zm310 20c3 0 3 7 0 6l-6-4 6-2zm-116 20c-3 0-7-1-9-3-3-3-1-3 5-2 5 2 7 3 4 5zm39 13c4 0 1 4-2 3-3-2-2-3 2-3zm214 4c1 2-6 2-6 0l1-4c1 0 3 1 5 4z"/>
  <path d="M533 652c0 5 27 12 37 9 13-3 11-10-2-7-7 2-17 1-23-2-6-2-12-3-12 0zm200 4c-4 1-14 2-21 1-10-2-12-1-8 2 7 6 27 6 35 1 7-5 3-8-6-4zm-133 91c-4 14 4 25 21 29 7 2 13 5 14 11 1 4 3 7 5 6s2-5 1-8c-1-4 1-7 9-9 24-5 28-9 28-25 0-8-1-13-3-12-3 3-3 5-4 15 0 3-6 4-12 3-6 0-14 2-17 5s-7 4-9 3c-1-2 0-3 2-3 8 0 5-7-4-10-11-3-13-2-11 2 0 2-2 4-5 4-4 0-5 2-3 5 2 4 1 4-2 1-2-2-4-10-5-16l-2-13-3 12zm6 69c-6 2-16 3-22 2-11-2-13-1-13 6s3 8 28 7h41c58 0 64 0 64-7 0-5-4-7-16-7l-27-2h-17c-4 0-11 0-18-2-6-1-15 0-20 3zm-4 28c0 2 2 5 5 8s6 9 7 14c0 5 1 7 1 4 2-3 6-3 14-1 7 2 19 3 27 2 11 0 14-2 16-12 2-13 1-17-4-15l-22 2-21 4c-2 1-5-1-8-4-5-6-15-8-15-2zm103 112c-2 5-6 12-10 15-9 7-4 13 8 7 6-3 8-7 7-11-2-7 2-14 10-18 3-1 2-2-3-2-6-1-10 3-12 9zm-17 34c-4 4-3 10 1 10 2 0 4-3 5-6 2-7-1-9-6-4zm-4 21c-4 3-3 9 1 9 1 0 3-3 3-6 0-7 0-7-4-3z"/>
</svg>